<svg width="552" height="240" viewBox="0 0 552 240" fill="none" xmlns="http://www.w3.org/2000/svg">
<rect x="415" y="54" width="94" height="339" rx="7" transform="rotate(90 415 54)" stroke="url(#paint0_linear_2257_149)" stroke-width="2" stroke-dasharray="3 3"/>
<rect x="495" y="92" width="94" height="339" rx="7" transform="rotate(90 495 92)" fill="#090A0F" stroke="url(#paint1_linear_2257_149)" stroke-width="2"/>
<rect width="285" height="13" rx="6.5" transform="matrix(-1 0 0 1 467 120)" fill="#5C5B5E"/>
<rect x="377.563" y="29" width="48.6953" height="333.563" rx="8" transform="rotate(90 377.563 29)" fill="#224A99"/>
<rect width="288.52" height="14.6086" rx="7.3043" transform="matrix(-1 0 0 1 353.215 46.0435)" fill="#224A99"/>
<rect width="288.52" height="14.6086" rx="7.3043" transform="matrix(-1 0 0 1 353.215 46.0435)" fill="#0C1933"/>
<path d="M419 152C419 148.134 415.866 145 412 145H189C185.134 145 182 148.134 182 152C182 155.866 185.134 159 189 159H412C415.866 159 419 155.866 419 152Z" fill="#5C5B5E"/>
<path d="M411.25 203C411.25 201.205 409.795 199.75 408 199.75H356C354.205 199.75 352.75 201.205 352.75 203C352.75 204.795 354.205 206.25 356 206.25H408C409.795 206.25 411.25 204.795 411.25 203Z" stroke="#8A888E" stroke-width="1.5"/>
<path d="M434.247 197L436.667 199.14L434.247 201.28" stroke="#8A888E" stroke-width="1.5" stroke-linecap="round" stroke-linejoin="round"/>
<path d="M429.753 209L427.333 206.86L429.753 204.727" stroke="#8A888E" stroke-width="1.5" stroke-linecap="round" stroke-linejoin="round"/>
<path d="M436.667 199.14H430.273C429.509 199.129 428.771 199.421 428.22 199.952C427.669 200.482 427.351 201.209 427.333 201.973V203.007" stroke="#8A888E" stroke-width="1.5" stroke-linecap="round" stroke-linejoin="round"/>
<path d="M427.333 206.867H433.727C434.492 206.877 435.231 206.585 435.782 206.053C436.333 205.521 436.651 204.792 436.667 204.027V203.007" stroke="#8A888E" stroke-width="1.5" stroke-linecap="round" stroke-linejoin="round"/>
<path d="M456.704 207.697H454.662C454.301 207.697 453.955 207.578 453.699 207.364C453.444 207.151 453.301 206.862 453.301 206.56V202.581C453.301 202.279 453.444 201.99 453.699 201.777C453.955 201.563 454.301 201.443 454.662 201.443H456.704M461.469 200.306V198.032C461.469 197.58 461.254 197.146 460.871 196.826C460.488 196.506 459.969 196.327 459.427 196.327L456.704 201.443V207.697H464.383C464.711 207.7 465.03 207.604 465.28 207.427C465.53 207.249 465.695 207.002 465.744 206.731L466.684 201.614C466.713 201.451 466.7 201.285 466.645 201.126C466.59 200.968 466.495 200.822 466.365 200.697C466.236 200.573 466.075 200.474 465.895 200.406C465.715 200.339 465.52 200.305 465.322 200.306H461.469Z" stroke="#8A888E" stroke-width="1.5" stroke-linecap="round" stroke-linejoin="round"/>
<path d="M491.296 198.303H493.338C493.699 198.303 494.045 198.422 494.301 198.636C494.556 198.849 494.699 199.138 494.699 199.44V203.419C494.699 203.721 494.556 204.01 494.301 204.223C494.045 204.437 493.699 204.557 493.338 204.557H491.296M486.531 205.694V207.968C486.531 208.42 486.746 208.854 487.129 209.174C487.512 209.494 488.031 209.673 488.573 209.673L491.296 204.557V198.303H483.617C483.289 198.3 482.97 198.396 482.72 198.573C482.47 198.751 482.305 198.998 482.256 199.269L481.316 204.386C481.287 204.549 481.3 204.715 481.355 204.874C481.41 205.032 481.505 205.178 481.635 205.303C481.764 205.427 481.925 205.526 482.105 205.594C482.285 205.661 482.48 205.695 482.678 205.694H486.531Z" stroke="#8A888E" stroke-width="1.5" stroke-linecap="round" stroke-linejoin="round"/>
<path fill-rule="evenodd" clip-rule="evenodd" d="M508 81C507.951 82.2886 507.669 83.5167 507.195 84.6433C506.142 87.1426 504.143 89.1424 501.643 90.195C500.517 90.6695 499.289 90.9515 498 91C499.289 91.0485 500.517 91.3305 501.643 91.805C504.143 92.8576 506.142 94.8574 507.195 97.3567C507.669 98.4833 507.951 99.7114 508 101C508.049 99.7114 508.331 98.4833 508.805 97.3567C509.858 94.8574 511.857 92.8576 514.357 91.805C515.483 91.3305 516.711 91.0485 518 91C516.711 90.9515 515.483 90.6695 514.357 90.195C511.857 89.1424 509.858 87.1426 508.805 84.6433C508.331 83.5167 508.049 82.2886 508 81ZM508 86.4087C506.925 88.3318 505.332 89.9249 503.409 91C505.332 92.0751 506.925 93.6682 508 95.5913C509.075 93.6682 510.668 92.0751 512.591 91C510.668 89.9249 509.075 88.3318 508 86.4087Z" fill="#8A888E"/>
<path fill-rule="evenodd" clip-rule="evenodd" d="M485 71C484.963 71.9868 484.652 72.9027 484.141 73.6739C483.755 74.2556 483.256 74.7551 482.674 75.1406C481.903 75.6518 480.987 75.9628 480 76C480.987 76.0372 481.903 76.3482 482.674 76.8594C483.256 77.2449 483.755 77.7444 484.141 78.3261C484.652 79.0973 484.963 80.0132 485 81C485.037 80.0132 485.348 79.0973 485.859 78.3261C486.245 77.7444 486.744 77.2449 487.326 76.8594C488.097 76.3482 489.013 76.0372 490 76C489.013 75.9628 488.097 75.6518 487.326 75.1406C486.744 74.7551 486.245 74.2556 485.859 73.6739C485.348 72.9027 485.037 71.9868 485 71ZM485 75.0339C484.712 75.3878 484.388 75.7116 484.034 76C484.388 76.2884 484.712 76.6122 485 76.9661C485.288 76.6122 485.612 76.2884 485.966 76C485.612 75.7116 485.288 75.3878 485 75.0339Z" fill="#8A888E"/>
<defs>
<linearGradient id="paint0_linear_2257_149" x1="410.532" y1="390.481" x2="455.089" y2="46.3328" gradientUnits="userSpaceOnUse">
<stop stop-color="#8DFCF1"/>
<stop offset="0.505" stop-color="#A97DFF"/>
<stop offset="1" stop-color="#397BFF"/>
</linearGradient>
<linearGradient id="paint1_linear_2257_149" x1="544" y1="432" x2="485.799" y2="101.241" gradientUnits="userSpaceOnUse">
<stop stop-color="#A97DFF"/>
<stop offset="0.5" stop-color="#7FE3D9"/>
<stop offset="1" stop-color="#397BFF"/>
</linearGradient>
</defs>
</svg>
