<svg width="552" height="240" viewBox="0 0 552 240" fill="none" xmlns="http://www.w3.org/2000/svg">
<rect x="516.121" y="105.588" width="78.5212" height="433.358" rx="8" transform="rotate(90 516.121 105.588)" fill="url(#paint0_linear_2257_77)"/>
<rect x="505.182" y="96.6484" width="76.5212" height="431.358" rx="7" transform="rotate(90 505.182 96.6484)" fill="#090A0F" stroke="url(#paint1_linear_2257_77)" stroke-width="2"/>
<rect width="375.709" height="11.9273" rx="5.96364" transform="matrix(-1 0 0 1 470.4 118.509)" fill="#8A888E"/>
<rect x="324.442" y="38" width="39.7576" height="272.339" rx="8" transform="rotate(90 324.442 38)" fill="#224A99"/>
<rect width="235.564" height="11.9273" rx="5.96364" transform="matrix(-1 0 0 1 304.564 51.915)" fill="#0C1933"/>
<rect width="193.818" height="11.9273" rx="5.96364" transform="matrix(-1 0 0 1 288.509 139.382)" fill="#8A888E"/>
<path fill-rule="evenodd" clip-rule="evenodd" d="M506.182 70.8C506.134 72.0808 505.853 73.3015 505.382 74.4213C504.336 76.9055 502.348 78.8931 499.864 79.9393C498.744 80.4109 497.523 80.6912 496.242 80.7394C497.523 80.7877 498.744 81.068 499.864 81.5396C502.348 82.5858 504.336 84.5734 505.382 87.0576C505.853 88.1774 506.134 89.398 506.182 90.6788C506.23 89.398 506.51 88.1774 506.982 87.0576C508.028 84.5734 510.016 82.5858 512.5 81.5396C513.62 81.068 514.84 80.7877 516.121 80.7394C514.84 80.6912 513.62 80.4109 512.5 79.9393C510.016 78.8931 508.028 76.9055 506.982 74.4213C506.51 73.3015 506.23 72.0808 506.182 70.8ZM506.182 76.176C505.113 78.0874 503.53 79.6708 501.618 80.7394C503.53 81.8081 505.113 83.3914 506.182 85.3029C507.25 83.3914 508.834 81.8081 510.745 80.7394C508.834 79.6708 507.25 78.0874 506.182 76.176Z" fill="#8A888E"/>
<path fill-rule="evenodd" clip-rule="evenodd" d="M77.7939 192.061C77.757 193.041 77.4479 193.952 76.9398 194.718C76.5565 195.296 76.0601 195.793 75.4819 196.176C74.7154 196.684 73.8051 196.993 72.8242 197.03C73.8051 197.067 74.7154 197.376 75.4819 197.884C76.0601 198.268 76.5565 198.764 76.9398 199.342C77.4479 200.109 77.757 201.019 77.7939 202C77.8309 201.019 78.14 200.109 78.6481 199.342C79.0313 198.764 79.5277 198.268 80.1059 197.884C80.8725 197.376 81.7828 197.067 82.7636 197.03C81.7828 196.993 80.8725 196.684 80.1059 196.176C79.5277 195.793 79.0313 195.296 78.6481 194.718C78.14 193.952 77.8309 193.041 77.7939 192.061ZM77.7939 196.07C77.5073 196.422 77.1854 196.744 76.8336 197.03C77.1854 197.317 77.5073 197.639 77.7939 197.991C78.0806 197.639 78.4024 197.317 78.7542 197.03C78.4024 196.744 78.0806 196.422 77.7939 196.07Z" fill="#8A888E"/>
<path fill-rule="evenodd" clip-rule="evenodd" d="M517.115 90.6787C517.078 91.6596 516.769 92.5699 516.261 93.3364C515.878 93.9146 515.381 94.411 514.803 94.7943C514.037 95.3023 513.126 95.6115 512.146 95.6484C513.126 95.6854 514.037 95.9945 514.803 96.5026C515.381 96.8858 515.878 97.3822 516.261 97.9604C516.769 98.727 517.078 99.6373 517.115 100.618C517.152 99.6373 517.461 98.727 517.969 97.9604C518.353 97.3822 518.849 96.8858 519.427 96.5026C520.194 95.9945 521.104 95.6854 522.085 95.6484C521.104 95.6115 520.194 95.3023 519.427 94.7943C518.849 94.411 518.353 93.9146 517.969 93.3364C517.461 92.5699 517.152 91.6596 517.115 90.6787ZM517.115 94.6881C516.829 95.0399 516.507 95.3618 516.155 95.6484C516.507 95.935 516.829 96.2569 517.115 96.6087C517.402 96.2569 517.724 95.935 518.075 95.6484C517.724 95.3618 517.402 95.0399 517.115 94.6881Z" fill="#8A888E"/>
<path fill-rule="evenodd" clip-rule="evenodd" d="M62.3879 175.164C62.3448 176.308 62.0549 177.388 61.5697 178.352C60.8216 179.839 59.6092 181.052 58.1218 181.8C57.1574 182.285 56.0774 182.575 54.9333 182.618C56.0774 182.661 57.1574 182.951 58.1218 183.436C59.6092 184.184 60.8216 185.397 61.5697 186.884C62.0549 187.849 62.3448 188.929 62.3879 190.073C62.431 188.929 62.7209 187.849 63.2061 186.884C63.9542 185.397 65.1666 184.184 66.6539 183.436C67.6184 182.951 68.6984 182.661 69.8424 182.618C68.6984 182.575 67.6184 182.285 66.6539 181.8C65.1666 181.052 63.9542 179.839 63.2061 178.352C62.7209 177.388 62.431 176.308 62.3879 175.164ZM62.3879 179.916C61.6849 180.993 60.7632 181.915 59.6853 182.618C60.7632 183.321 61.6849 184.243 62.3879 185.321C63.0908 184.243 64.0126 183.321 65.0905 182.618C64.0126 181.915 63.0908 180.993 62.3879 179.916Z" fill="#8A888E"/>
<defs>
<linearGradient id="paint0_linear_2257_77" x1="551.033" y1="105.709" x2="411.456" y2="155.029" gradientUnits="userSpaceOnUse">
<stop stop-color="#397BFF"/>
<stop offset="0.505" stop-color="#7FE3D9"/>
<stop offset="1" stop-color="#A97DFF"/>
</linearGradient>
<linearGradient id="paint1_linear_2257_77" x1="545.533" y1="98.8305" x2="409.701" y2="147.173" gradientUnits="userSpaceOnUse">
<stop stop-color="#397BFF"/>
<stop offset="0.5" stop-color="#7FE3D9"/>
<stop offset="1" stop-color="#A97DFF"/>
</linearGradient>
</defs>
</svg>
