<svg width="552" height="240" viewBox="0 0 552 240" fill="none" xmlns="http://www.w3.org/2000/svg">
<rect x="460" y="63" width="78" height="84" rx="7" transform="rotate(90 460 63)" fill="white" stroke="url(#paint0_linear_2220_4499)" stroke-width="2"/>
<path d="M461.751 182V180.226C460.494 180.226 459.247 180.226 458 180.226V179.128L461.781 174H462.949V179.128C463.303 179.128 463.646 179.128 464 179.128V180.226H462.949C462.949 180.821 462.949 181.405 462.949 182H461.751ZM459.267 179.128H461.751C461.751 178 461.751 176.862 461.751 175.733C461.034 176.718 459.984 178.144 459.267 179.128Z" fill="white"/>
<rect x="339.339" y="36" width="39.7576" height="272.339" rx="8" transform="rotate(90 339.339 36)" fill="#EBF2FF"/>
<rect width="235.564" height="11.9273" rx="5.96364" transform="matrix(-1 0 0 1 319.46 49.915)" fill="#B0CAFF"/>
<mask id="path-5-inside-1_2220_4499" fill="white">
<path d="M419.474 111.429H416.786L416.414 109.215C415.814 109.054 415.247 108.812 414.726 108.5L412.876 109.77L411.002 107.843L412.329 106.032C412.065 105.56 411.856 105.052 411.713 104.518L409.497 104.14V101.452L411.708 101.074C411.859 100.505 412.083 99.9654 412.371 99.4669L411.071 97.6322L412.972 95.7318L414.803 97.0274C415.301 96.7385 415.839 96.5122 416.408 96.3594L416.786 94.1438H419.474L419.853 96.3542C420.452 96.5134 421.018 96.754 421.538 97.0635L423.39 95.7892L425.264 97.7155L423.944 99.5288C424.214 100.009 424.426 100.527 424.571 101.072L426.782 101.452V104.14L424.568 104.512C424.416 105.083 424.189 105.622 423.9 106.121L425.194 107.954L423.294 109.855L421.465 108.552C420.965 108.841 420.425 109.066 419.855 109.218L419.474 111.429Z"/>
</mask>
<path d="M416.786 111.429L415.8 111.595L415.94 112.429H416.786V111.429ZM419.474 111.429V112.429H420.316L420.459 111.599L419.474 111.429ZM416.414 109.215L417.4 109.049L417.293 108.415L416.672 108.249L416.414 109.215ZM414.726 108.5L415.24 107.642L414.69 107.313L414.161 107.676L414.726 108.5ZM412.876 109.77L412.159 110.467L412.747 111.071L413.441 110.594L412.876 109.77ZM411.002 107.843L410.195 107.252L409.695 107.935L410.285 108.541L411.002 107.843ZM412.329 106.032L413.135 106.623L413.515 106.105L413.201 105.544L412.329 106.032ZM411.713 104.518L412.678 104.259L412.512 103.64L411.881 103.533L411.713 104.518ZM409.497 104.14H408.497V104.984L409.329 105.126L409.497 104.14ZM409.497 101.452L409.328 100.467L408.497 100.609V101.452H409.497ZM411.708 101.074L411.876 102.059L412.509 101.951L412.674 101.33L411.708 101.074ZM412.371 99.4669L413.237 99.9664L413.557 99.4116L413.187 98.8889L412.371 99.4669ZM411.071 97.6322L410.364 96.9251L409.768 97.5217L410.255 98.2102L411.071 97.6322ZM412.972 95.7318L413.549 94.9155L412.861 94.4284L412.265 95.0247L412.972 95.7318ZM414.803 97.0274L414.226 97.8437L414.75 98.2146L415.305 97.8922L414.803 97.0274ZM416.408 96.3594L416.667 97.3251L417.286 97.1589L417.394 96.5277L416.408 96.3594ZM416.786 94.1438V93.1438H415.943L415.8 93.9755L416.786 94.1438ZM419.474 94.1438L420.459 93.9749L420.317 93.1438H419.474V94.1438ZM419.853 96.3542L418.867 96.5231L418.975 97.1559L419.596 97.3207L419.853 96.3542ZM421.538 97.0635L421.026 97.9228L421.577 98.2504L422.104 97.8874L421.538 97.0635ZM423.39 95.7892L424.107 95.0919L423.518 94.4872L422.823 94.9653L423.39 95.7892ZM425.264 97.7155L426.073 98.3041L426.569 97.6225L425.981 97.0181L425.264 97.7155ZM423.944 99.5288L423.136 98.9402L422.757 99.4593L423.072 100.019L423.944 99.5288ZM424.571 101.072L423.605 101.329L423.77 101.948L424.402 102.057L424.571 101.072ZM426.782 101.452H427.782V100.61L426.952 100.467L426.782 101.452ZM426.782 104.14L426.948 105.126L427.782 104.986V104.14H426.782ZM424.568 104.512L424.402 103.526L423.769 103.633L423.602 104.254L424.568 104.512ZM423.9 106.121L423.035 105.619L422.713 106.174L423.083 106.698L423.9 106.121ZM425.194 107.954L425.901 108.661L426.497 108.066L426.011 107.378L425.194 107.954ZM423.294 109.855L422.714 110.669L423.403 111.16L424.001 110.562L423.294 109.855ZM421.465 108.552L422.045 107.738L421.521 107.365L420.964 107.687L421.465 108.552ZM419.855 109.218L419.597 108.252L418.978 108.417L418.869 109.048L419.855 109.218ZM416.786 112.429H419.474V110.429H416.786V112.429ZM415.428 109.381L415.8 111.595L417.772 111.263L417.4 109.049L415.428 109.381ZM416.672 108.249C416.163 108.113 415.682 107.907 415.24 107.642L414.213 109.358C414.812 109.717 415.464 109.996 416.155 110.181L416.672 108.249ZM413.441 110.594L415.292 109.325L414.161 107.676L412.31 108.945L413.441 110.594ZM410.285 108.541L412.159 110.467L413.592 109.072L411.718 107.146L410.285 108.541ZM411.522 105.441L410.195 107.252L411.808 108.435L413.135 106.623L411.522 105.441ZM413.201 105.544C412.977 105.143 412.8 104.712 412.678 104.259L410.747 104.778C410.912 105.393 411.152 105.977 411.456 106.521L413.201 105.544ZM409.329 105.126L411.544 105.504L411.881 103.533L409.665 103.154L409.329 105.126ZM408.497 101.452V104.14H410.497V101.452H408.497ZM411.539 100.088L409.328 100.467L409.666 102.438L411.876 102.059L411.539 100.088ZM412.674 101.33C412.802 100.848 412.993 100.39 413.237 99.9664L411.504 98.9674C411.174 99.5408 410.915 100.162 410.741 100.817L412.674 101.33ZM410.255 98.2102L411.555 100.045L413.187 98.8889L411.887 97.0542L410.255 98.2102ZM412.265 95.0247L410.364 96.9251L411.778 98.3393L413.679 96.4389L412.265 95.0247ZM415.381 96.211L413.549 94.9155L412.394 96.5482L414.226 97.8437L415.381 96.211ZM415.305 97.8922C415.728 97.6468 416.185 97.4547 416.667 97.3251L416.148 95.3936C415.493 95.5696 414.873 95.8302 414.301 96.1626L415.305 97.8922ZM415.8 93.9755L415.422 96.191L417.394 96.5277L417.772 94.3121L415.8 93.9755ZM419.474 93.1438H416.786V95.1438H419.474V93.1438ZM420.838 96.1854L420.459 93.9749L418.488 94.3127L418.867 96.5231L420.838 96.1854ZM419.596 97.3207C420.104 97.4557 420.584 97.6599 421.026 97.9228L422.049 96.2041C421.451 95.848 420.799 95.571 420.109 95.3877L419.596 97.3207ZM422.823 94.9653L420.971 96.2396L422.104 97.8874L423.957 96.6131L422.823 94.9653ZM425.981 97.0181L424.107 95.0919L422.673 96.4866L424.548 98.4129L425.981 97.0181ZM424.752 100.117L426.073 98.3041L424.456 97.1268L423.136 98.9402L424.752 100.117ZM423.072 100.019C423.302 100.427 423.482 100.866 423.605 101.329L425.538 100.815C425.371 100.187 425.126 99.5915 424.815 99.0386L423.072 100.019ZM426.952 100.467L424.741 100.086L424.402 102.057L426.613 102.438L426.952 100.467ZM427.782 104.14V101.452H425.782V104.14H427.782ZM424.734 105.499L426.948 105.126L426.616 103.154L424.402 103.526L424.734 105.499ZM423.602 104.254C423.473 104.737 423.281 105.196 423.035 105.619L424.765 106.623C425.098 106.049 425.358 105.428 425.534 104.771L423.602 104.254ZM426.011 107.378L424.717 105.544L423.083 106.698L424.377 108.531L426.011 107.378ZM424.001 110.562L425.901 108.661L424.487 107.247L422.587 109.148L424.001 110.562ZM420.885 109.367L422.714 110.669L423.874 109.04L422.045 107.738L420.885 109.367ZM420.964 107.687C420.54 107.932 420.081 108.123 419.597 108.252L420.112 110.185C420.768 110.01 421.39 109.75 421.965 109.418L420.964 107.687ZM420.459 111.599L420.84 109.388L418.869 109.048L418.488 111.259L420.459 111.599Z" fill="#090A0F" mask="url(#path-5-inside-1_2220_4499)"/>
<path fill-rule="evenodd" clip-rule="evenodd" d="M415.066 102.749C415.066 101.03 416.459 99.6365 418.178 99.6365C419.897 99.6365 421.291 101.03 421.291 102.749C421.291 104.468 419.897 105.862 418.178 105.862C416.459 105.862 415.066 104.468 415.066 102.749ZM418.178 100.399C416.881 100.399 415.829 101.451 415.829 102.749C415.829 104.047 416.881 105.099 418.178 105.099C419.476 105.099 420.528 104.047 420.528 102.749C420.528 101.451 419.476 100.399 418.178 100.399Z" fill="#090A0F"/>
<path fill-rule="evenodd" clip-rule="evenodd" d="M409.259 128.752C423.601 133.655 439.202 126.004 444.105 111.662C449.009 97.3206 441.357 81.7196 427.016 76.8164C412.674 71.9132 397.073 79.5646 392.17 93.9062C387.267 108.248 394.918 123.849 409.259 128.752ZM413.534 116.249C420.97 118.791 429.06 114.824 431.602 107.388C434.145 99.9512 430.177 91.8618 422.741 89.3194C415.305 86.777 407.215 90.7444 404.673 98.1808C402.13 105.617 406.098 113.707 413.534 116.249Z" fill="url(#paint1_linear_2220_4499)"/>
<path d="M427.286 86.901C430.371 83.2013 429.547 77.5062 424.91 76.2603C424.133 76.0515 423.346 75.877 422.554 75.738C409.592 73.4638 396.549 80.9443 392.157 93.8696C388.751 103.895 391.454 114.537 398.266 121.695L406.79 111.475C403.958 107.822 402.957 102.847 404.558 98.1358C406.379 92.7751 411.07 89.2206 416.314 88.6161C417.62 88.4656 418.959 88.4979 420.298 88.7305C420.438 88.7549 420.578 88.7814 420.717 88.81C423.047 89.2885 425.634 88.8808 427.163 87.0479L427.286 86.901Z" fill="url(#paint2_radial_2220_4499)"/>
<path fill-rule="evenodd" clip-rule="evenodd" d="M474 62C473.951 63.2886 473.669 64.5167 473.195 65.6433C472.142 68.1426 470.143 70.1424 467.643 71.195C466.517 71.6695 465.289 71.9515 464 72C465.289 72.0485 466.517 72.3305 467.643 72.805C470.143 73.8576 472.142 75.8574 473.195 78.3567C473.669 79.4833 473.951 80.7114 474 82C474.049 80.7114 474.331 79.4833 474.805 78.3567C475.858 75.8574 477.857 73.8576 480.357 72.805C481.483 72.3305 482.711 72.0485 484 72C482.711 71.9515 481.483 71.6695 480.357 71.195C477.857 70.1424 475.858 68.1426 474.805 65.6433C474.331 64.5167 474.049 63.2886 474 62ZM474 67.4087C472.925 69.3318 471.332 70.9249 469.409 72C471.332 73.0751 472.925 74.6682 474 76.5913C475.075 74.6682 476.668 73.0751 478.591 72C476.668 70.9249 475.075 69.3318 474 67.4087Z" fill="#090A0F"/>
<path fill-rule="evenodd" clip-rule="evenodd" d="M362 130C361.963 130.987 361.652 131.903 361.141 132.674C360.755 133.256 360.256 133.755 359.674 134.141C358.903 134.652 357.987 134.963 357 135C357.987 135.037 358.903 135.348 359.674 135.859C360.256 136.245 360.755 136.744 361.141 137.326C361.652 138.097 361.963 139.013 362 140C362.037 139.013 362.348 138.097 362.859 137.326C363.245 136.744 363.744 136.245 364.326 135.859C365.097 135.348 366.013 135.037 367 135C366.013 134.963 365.097 134.652 364.326 134.141C363.744 133.755 363.245 133.256 362.859 132.674C362.348 131.903 362.037 130.987 362 130ZM362 134.034C361.712 134.388 361.388 134.712 361.034 135C361.388 135.288 361.712 135.612 362 135.966C362.288 135.612 362.612 135.288 362.966 135C362.612 134.712 362.288 134.388 362 134.034Z" fill="#090A0F"/>
<path fill-rule="evenodd" clip-rule="evenodd" d="M451 46C450.963 46.9868 450.652 47.9027 450.141 48.6739C449.755 49.2556 449.256 49.7551 448.674 50.1406C447.903 50.6518 446.987 50.9628 446 51C446.987 51.0372 447.903 51.3482 448.674 51.8594C449.256 52.2449 449.755 52.7444 450.141 53.3261C450.652 54.0973 450.963 55.0132 451 56C451.037 55.0132 451.348 54.0973 451.859 53.3261C452.245 52.7444 452.744 52.2449 453.326 51.8594C454.097 51.3482 455.013 51.0372 456 51C455.013 50.9628 454.097 50.6518 453.326 50.1406C452.744 49.7551 452.245 49.2556 451.859 48.6739C451.348 47.9027 451.037 46.9868 451 46ZM451 50.0339C450.712 50.3878 450.388 50.7116 450.034 51C450.388 51.2884 450.712 51.6122 451 51.9661C451.288 51.6122 451.612 51.2884 451.966 51C451.612 50.7116 451.288 50.3878 451 50.0339Z" fill="#090A0F"/>
<path fill-rule="evenodd" clip-rule="evenodd" d="M374.5 142C374.457 143.151 374.165 144.238 373.677 145.208C372.924 146.704 371.704 147.924 370.208 148.677C369.238 149.165 368.151 149.457 367 149.5C368.151 149.543 369.238 149.835 370.208 150.323C371.704 151.076 372.924 152.296 373.677 153.792C374.165 154.762 374.457 155.849 374.5 157C374.543 155.849 374.835 154.762 375.323 153.792C376.076 152.296 377.296 151.076 378.792 150.323C379.762 149.835 380.849 149.543 382 149.5C380.849 149.457 379.762 149.165 378.792 148.677C377.296 147.924 376.076 146.704 375.323 145.208C374.835 144.238 374.543 143.151 374.5 142ZM374.5 146.781C373.793 147.865 372.865 148.793 371.781 149.5C372.865 150.207 373.793 151.135 374.5 152.219C375.207 151.135 376.135 150.207 377.219 149.5C376.135 148.793 375.207 147.865 374.5 146.781Z" fill="#090A0F"/>
<path d="M460.5 102H489C493.418 102 497 105.582 497 110V174C497 178.418 493.418 182 489 182H217" stroke="url(#paint3_linear_2220_4499)" stroke-width="2" stroke-dasharray="2 2"/>
<rect x="217" y="162" width="40" height="149" rx="7" transform="rotate(90 217 162)" fill="white" stroke="url(#paint4_linear_2220_4499)" stroke-width="2"/>
<rect x="463" y="162" width="40" height="224" rx="7" transform="rotate(90 463 162)" fill="white" stroke="url(#paint5_linear_2220_4499)" stroke-width="2"/>
<rect width="126" height="12" rx="6" transform="matrix(-1 0 0 1 205 176)" fill="#E6E3EC"/>
<rect width="200" height="12" rx="6" transform="matrix(-1 0 0 1 451 176)" fill="#E6E3EC"/>
<defs>
<linearGradient id="paint0_linear_2220_4499" x1="456.443" y1="147.112" x2="459.896" y2="58.9989" gradientUnits="userSpaceOnUse">
<stop stop-color="#A97DFF"/>
<stop offset="0.5" stop-color="#7FE3D9"/>
<stop offset="1" stop-color="#397BFF"/>
</linearGradient>
<linearGradient id="paint1_linear_2220_4499" x1="430.5" y1="85.4999" x2="410" y2="121" gradientUnits="userSpaceOnUse">
<stop stop-color="white"/>
<stop offset="1" stop-color="#A97DFF"/>
</linearGradient>
<radialGradient id="paint2_radial_2220_4499" cx="0" cy="0" r="1" gradientUnits="userSpaceOnUse" gradientTransform="translate(400.5 118) rotate(-53.7812) scale(44.0028 396.539)">
<stop stop-color="#A97DFF"/>
<stop offset="0.5" stop-color="#7FE3D9"/>
<stop offset="1" stop-color="#397BFF"/>
</radialGradient>
<linearGradient id="paint3_linear_2220_4499" x1="67.5" y1="102" x2="446.955" y2="-35.804" gradientUnits="userSpaceOnUse">
<stop stop-color="#A97DFF"/>
<stop offset="0.495" stop-color="#7FE3D9"/>
<stop offset="1" stop-color="#397BFF"/>
</linearGradient>
<linearGradient id="paint4_linear_2220_4499" x1="239" y1="312" x2="213.934" y2="165.282" gradientUnits="userSpaceOnUse">
<stop stop-color="#A97DFF"/>
<stop offset="0.505" stop-color="#7FE3D9"/>
<stop offset="1" stop-color="#397BFF"/>
</linearGradient>
<linearGradient id="paint5_linear_2220_4499" x1="485" y1="387" x2="482.786" y2="161.022" gradientUnits="userSpaceOnUse">
<stop stop-color="#A97DFF"/>
<stop offset="0.505" stop-color="#7FE3D9"/>
<stop offset="1" stop-color="#397BFF"/>
</linearGradient>
</defs>
</svg>
