<svg width="552" height="240" viewBox="0 0 552 240" fill="none" xmlns="http://www.w3.org/2000/svg">
<rect x="460" y="63" width="78" height="84" rx="7" transform="rotate(90 460 63)" fill="#090A0F" stroke="url(#paint0_linear_2257_215)" stroke-width="2"/>
<path d="M461.751 182V180.226C460.494 180.226 459.247 180.226 458 180.226V179.128L461.781 174H462.949V179.128C463.303 179.128 463.646 179.128 464 179.128V180.226H462.949C462.949 180.821 462.949 181.405 462.949 182H461.751ZM459.267 179.128H461.751C461.751 178 461.751 176.862 461.751 175.733C461.034 176.718 459.984 178.144 459.267 179.128Z" fill="white"/>
<rect x="339.339" y="36" width="39.7576" height="272.339" rx="8" transform="rotate(90 339.339 36)" fill="#224A99"/>
<rect width="235.564" height="11.9273" rx="5.96364" transform="matrix(-1 0 0 1 319.46 49.915)" fill="#0C1933"/>
<mask id="path-5-inside-1_2257_215" fill="white">
<path d="M419.474 111.429H416.786L416.414 109.215C415.814 109.054 415.247 108.812 414.726 108.5L412.876 109.77L411.002 107.843L412.329 106.032C412.065 105.56 411.856 105.052 411.713 104.518L409.497 104.14V101.452L411.708 101.074C411.859 100.505 412.083 99.9654 412.371 99.4669L411.071 97.6322L412.972 95.7318L414.803 97.0274C415.301 96.7385 415.839 96.5122 416.408 96.3594L416.786 94.1438H419.474L419.853 96.3542C420.452 96.5134 421.018 96.754 421.538 97.0635L423.39 95.7892L425.264 97.7155L423.944 99.5288C424.214 100.009 424.426 100.527 424.571 101.072L426.782 101.452V104.14L424.568 104.512C424.416 105.083 424.189 105.622 423.9 106.121L425.194 107.954L423.294 109.855L421.465 108.552C420.965 108.841 420.425 109.066 419.855 109.218L419.474 111.429Z"/>
</mask>
<path d="M416.786 111.429L415.8 111.595L415.94 112.429H416.786V111.429ZM419.474 111.429V112.429H420.316L420.459 111.599L419.474 111.429ZM416.414 109.215L417.4 109.049L417.293 108.415L416.672 108.249L416.414 109.215ZM414.726 108.5L415.24 107.642L414.69 107.313L414.161 107.676L414.726 108.5ZM412.876 109.77L412.159 110.467L412.747 111.071L413.441 110.594L412.876 109.77ZM411.002 107.843L410.195 107.252L409.695 107.935L410.285 108.541L411.002 107.843ZM412.329 106.032L413.135 106.623L413.515 106.105L413.201 105.544L412.329 106.032ZM411.713 104.518L412.678 104.259L412.512 103.64L411.881 103.533L411.713 104.518ZM409.497 104.14H408.497V104.984L409.329 105.126L409.497 104.14ZM409.497 101.452L409.328 100.467L408.497 100.609V101.452H409.497ZM411.708 101.074L411.876 102.059L412.509 101.951L412.674 101.33L411.708 101.074ZM412.371 99.4669L413.237 99.9664L413.557 99.4116L413.187 98.8889L412.371 99.4669ZM411.071 97.6322L410.364 96.9251L409.768 97.5217L410.255 98.2102L411.071 97.6322ZM412.972 95.7318L413.549 94.9155L412.861 94.4284L412.265 95.0247L412.972 95.7318ZM414.803 97.0274L414.226 97.8437L414.75 98.2146L415.305 97.8922L414.803 97.0274ZM416.408 96.3594L416.667 97.3251L417.286 97.1589L417.394 96.5277L416.408 96.3594ZM416.786 94.1438V93.1438H415.943L415.8 93.9755L416.786 94.1438ZM419.474 94.1438L420.459 93.9749L420.317 93.1438H419.474V94.1438ZM419.853 96.3542L418.867 96.5231L418.975 97.1559L419.596 97.3207L419.853 96.3542ZM421.538 97.0635L421.026 97.9228L421.577 98.2504L422.104 97.8874L421.538 97.0635ZM423.39 95.7892L424.107 95.0919L423.518 94.4872L422.823 94.9653L423.39 95.7892ZM425.264 97.7155L426.073 98.3041L426.569 97.6225L425.981 97.0181L425.264 97.7155ZM423.944 99.5288L423.136 98.9402L422.757 99.4593L423.072 100.019L423.944 99.5288ZM424.571 101.072L423.605 101.329L423.77 101.948L424.402 102.057L424.571 101.072ZM426.782 101.452H427.782V100.61L426.952 100.467L426.782 101.452ZM426.782 104.14L426.948 105.126L427.782 104.986V104.14H426.782ZM424.568 104.512L424.402 103.526L423.769 103.633L423.602 104.254L424.568 104.512ZM423.9 106.121L423.035 105.619L422.713 106.174L423.083 106.698L423.9 106.121ZM425.194 107.954L425.901 108.661L426.497 108.066L426.011 107.378L425.194 107.954ZM423.294 109.855L422.714 110.669L423.403 111.16L424.001 110.562L423.294 109.855ZM421.465 108.552L422.045 107.738L421.521 107.365L420.964 107.687L421.465 108.552ZM419.855 109.218L419.597 108.252L418.978 108.417L418.869 109.048L419.855 109.218ZM416.786 112.429H419.474V110.429H416.786V112.429ZM415.428 109.381L415.8 111.595L417.772 111.263L417.4 109.049L415.428 109.381ZM416.672 108.249C416.163 108.113 415.682 107.907 415.24 107.642L414.213 109.358C414.812 109.717 415.464 109.996 416.155 110.181L416.672 108.249ZM413.441 110.594L415.292 109.325L414.161 107.676L412.31 108.945L413.441 110.594ZM410.285 108.541L412.159 110.467L413.592 109.072L411.718 107.146L410.285 108.541ZM411.522 105.441L410.195 107.252L411.808 108.435L413.135 106.623L411.522 105.441ZM413.201 105.544C412.977 105.143 412.8 104.712 412.678 104.259L410.747 104.778C410.912 105.393 411.152 105.977 411.456 106.521L413.201 105.544ZM409.329 105.126L411.544 105.504L411.881 103.533L409.665 103.154L409.329 105.126ZM408.497 101.452V104.14H410.497V101.452H408.497ZM411.539 100.088L409.328 100.467L409.666 102.438L411.876 102.059L411.539 100.088ZM412.674 101.33C412.802 100.848 412.993 100.39 413.237 99.9664L411.504 98.9674C411.174 99.5408 410.915 100.162 410.741 100.817L412.674 101.33ZM410.255 98.2102L411.555 100.045L413.187 98.8889L411.887 97.0542L410.255 98.2102ZM412.265 95.0247L410.364 96.9251L411.778 98.3393L413.679 96.4389L412.265 95.0247ZM415.381 96.211L413.549 94.9155L412.394 96.5482L414.226 97.8437L415.381 96.211ZM415.305 97.8922C415.728 97.6468 416.185 97.4547 416.667 97.3251L416.148 95.3936C415.493 95.5696 414.873 95.8302 414.301 96.1626L415.305 97.8922ZM415.8 93.9755L415.422 96.191L417.394 96.5277L417.772 94.3121L415.8 93.9755ZM419.474 93.1438H416.786V95.1438H419.474V93.1438ZM420.838 96.1854L420.459 93.9749L418.488 94.3127L418.867 96.5231L420.838 96.1854ZM419.596 97.3207C420.104 97.4557 420.584 97.6599 421.026 97.9228L422.049 96.2041C421.451 95.848 420.799 95.571 420.109 95.3877L419.596 97.3207ZM422.823 94.9653L420.971 96.2396L422.104 97.8874L423.957 96.6131L422.823 94.9653ZM425.981 97.0181L424.107 95.0919L422.673 96.4866L424.548 98.4129L425.981 97.0181ZM424.752 100.117L426.073 98.3041L424.456 97.1268L423.136 98.9402L424.752 100.117ZM423.072 100.019C423.302 100.427 423.482 100.866 423.605 101.329L425.538 100.815C425.371 100.187 425.126 99.5915 424.815 99.0386L423.072 100.019ZM426.952 100.467L424.741 100.086L424.402 102.057L426.613 102.438L426.952 100.467ZM427.782 104.14V101.452H425.782V104.14H427.782ZM424.734 105.499L426.948 105.126L426.616 103.154L424.402 103.526L424.734 105.499ZM423.602 104.254C423.473 104.737 423.281 105.196 423.035 105.619L424.765 106.623C425.098 106.049 425.358 105.428 425.534 104.771L423.602 104.254ZM426.011 107.378L424.717 105.544L423.083 106.698L424.377 108.531L426.011 107.378ZM424.001 110.562L425.901 108.661L424.487 107.247L422.587 109.148L424.001 110.562ZM420.885 109.367L422.714 110.669L423.874 109.04L422.045 107.738L420.885 109.367ZM420.964 107.687C420.54 107.932 420.081 108.123 419.597 108.252L420.112 110.185C420.768 110.01 421.39 109.75 421.965 109.418L420.964 107.687ZM420.459 111.599L420.84 109.388L418.869 109.048L418.488 111.259L420.459 111.599Z" fill="#B8B6BD" mask="url(#path-5-inside-1_2257_215)"/>
<path fill-rule="evenodd" clip-rule="evenodd" d="M415.066 102.749C415.066 101.03 416.459 99.6365 418.178 99.6365C419.897 99.6365 421.291 101.03 421.291 102.749C421.291 104.468 419.897 105.862 418.178 105.862C416.459 105.862 415.066 104.468 415.066 102.749ZM418.178 100.399C416.881 100.399 415.829 101.451 415.829 102.749C415.829 104.047 416.881 105.099 418.178 105.099C419.476 105.099 420.528 104.047 420.528 102.749C420.528 101.451 419.476 100.399 418.178 100.399Z" fill="#B8B6BD" stroke="#B8B6BD"/>
<path fill-rule="evenodd" clip-rule="evenodd" d="M409.259 128.752C423.601 133.655 439.202 126.004 444.105 111.662C449.009 97.3206 441.357 81.7196 427.016 76.8164C412.674 71.9132 397.073 79.5646 392.17 93.9062C387.267 108.248 394.918 123.849 409.259 128.752ZM413.534 116.249C420.97 118.791 429.06 114.824 431.602 107.388C434.145 99.9512 430.177 91.8618 422.741 89.3194C415.305 86.777 407.215 90.7444 404.673 98.1808C402.13 105.617 406.098 113.707 413.534 116.249Z" fill="url(#paint1_linear_2257_215)"/>
<path d="M427.286 86.901C430.371 83.2013 429.547 77.5062 424.91 76.2603C424.133 76.0515 423.346 75.877 422.554 75.738C409.592 73.4638 396.549 80.9443 392.157 93.8696C388.751 103.895 391.454 114.537 398.266 121.695L406.79 111.475C403.958 107.822 402.957 102.847 404.558 98.1358C406.379 92.7751 411.07 89.2206 416.314 88.6161C417.62 88.4656 418.959 88.4979 420.298 88.7305C420.438 88.7549 420.578 88.7814 420.717 88.81C423.047 89.2885 425.634 88.8808 427.163 87.0479L427.286 86.901Z" fill="url(#paint2_radial_2257_215)"/>
<path d="M474.655 67.0427L474 65.8717L473.345 67.0427C472.886 67.8651 472.325 68.6231 471.679 69.3C472.605 68.3289 473.357 67.1906 473.886 65.9344C473.925 65.8414 473.963 65.7478 474 65.6535C474.037 65.7478 474.075 65.8414 474.114 65.9344C475.242 68.6142 477.386 70.7576 480.066 71.8862C480.159 71.9254 480.252 71.9633 480.346 72C480.252 72.0367 480.159 72.0746 480.066 72.1138C478.889 72.6091 477.817 73.2999 476.888 74.1457C477.516 73.5736 478.21 73.0724 478.957 72.6546L480.128 72L478.957 71.3454C477.155 70.3379 475.662 68.8448 474.655 67.0427ZM474 78.3465C473.963 78.2522 473.925 78.1586 473.886 78.0656C472.758 75.3858 470.614 73.2424 467.934 72.1138C467.841 72.0746 467.748 72.0367 467.654 72C467.748 71.9633 467.841 71.9254 467.934 71.8862C469.15 71.3742 470.256 70.6533 471.206 69.7682C470.553 70.3762 469.827 70.9068 469.043 71.3454L467.872 72L469.043 72.6546C470.845 73.6621 472.338 75.1552 473.345 76.9573L474 78.1283L474.655 76.9573C475.114 76.1349 475.675 75.3769 476.321 74.7C475.395 75.6711 474.643 76.8094 474.114 78.0656C474.075 78.1586 474.037 78.2522 474 78.3465Z" fill="#5C5B5E" stroke="#8A888E" stroke-width="1.5"/>
<path d="M362.581 133.56L362 132.847L361.419 133.56C361.322 133.679 361.221 133.794 361.115 133.904C361.355 133.652 361.573 133.379 361.766 133.088C361.849 132.963 361.927 132.835 362 132.704C362.073 132.835 362.151 132.963 362.234 133.088C362.675 133.754 363.246 134.325 363.912 134.766C364.037 134.849 364.165 134.927 364.296 135C364.165 135.073 364.037 135.151 363.912 135.234C363.625 135.424 363.355 135.639 363.106 135.875C363.214 135.773 363.325 135.675 363.44 135.581L364.153 135L363.44 134.419C363.125 134.162 362.838 133.875 362.581 133.56ZM362 137.296C361.927 137.165 361.849 137.037 361.766 136.912C361.576 136.625 361.362 136.356 361.126 136.107C361.228 136.215 361.325 136.325 361.419 136.44L362 137.153L362.581 136.44C362.71 136.283 362.846 136.132 362.989 135.989C362.708 136.27 362.455 136.579 362.234 136.912C362.151 137.037 362.073 137.165 362 137.296ZM359.704 135C359.835 134.927 359.963 134.849 360.088 134.766C360.371 134.578 360.637 134.367 360.883 134.135C360.779 134.234 360.671 134.328 360.56 134.419L359.847 135L360.56 135.581C360.717 135.71 360.868 135.846 361.011 135.989C360.73 135.708 360.421 135.455 360.088 135.234C359.963 135.151 359.835 135.073 359.704 135Z" fill="#5C5B5E" stroke="#8A888E" stroke-width="1.5"/>
<path d="M451.581 49.5601L451 48.8466L450.419 49.5601C450.322 49.6788 450.221 49.7936 450.115 49.9045C450.355 49.6524 450.573 49.3794 450.766 49.0883C450.849 48.9635 450.927 48.8353 451 48.7041C451.073 48.8353 451.151 48.9635 451.234 49.0883C451.675 49.7537 452.246 50.3248 452.912 50.7658C453.037 50.8485 453.165 50.9267 453.296 51C453.165 51.0733 453.037 51.1515 452.912 51.2342C452.625 51.4245 452.355 51.639 452.106 51.8748C452.214 51.7729 452.325 51.6751 452.44 51.5814L453.153 51L452.44 50.4186C452.125 50.1623 451.838 49.8746 451.581 49.5601ZM451 53.2959C450.927 53.1647 450.849 53.0365 450.766 52.9117C450.576 52.6252 450.362 52.3561 450.126 52.1074C450.228 52.2145 450.325 52.3254 450.419 52.4399L451 53.1534L451.581 52.4399C451.71 52.2827 451.846 52.1321 451.989 51.9888C451.708 52.2699 451.455 52.579 451.234 52.9117C451.151 53.0365 451.073 53.1647 451 53.2959ZM448.704 51C448.835 50.9267 448.963 50.8485 449.088 50.7658C449.371 50.5782 449.637 50.3671 449.883 50.1353C449.779 50.2335 449.671 50.328 449.56 50.4186L448.847 51L449.56 51.5814C449.717 51.7095 449.868 51.8455 450.011 51.9888C449.73 51.7077 449.421 51.4547 449.088 51.2342C448.963 51.1515 448.835 51.0733 448.704 51Z" fill="#5C5B5E" stroke="#8A888E" stroke-width="1.5"/>
<path d="M372.618 147.882C373.319 147.211 373.906 146.421 374.347 145.545C374.4 145.439 374.451 145.332 374.5 145.224C374.549 145.332 374.6 145.439 374.653 145.545C375.008 146.251 375.458 146.901 375.987 147.478C375.671 147.134 375.384 146.764 375.128 146.371L374.5 145.408L373.872 146.371C373.513 146.922 373.091 147.429 372.618 147.882ZM372.618 147.882C372.007 148.467 371.309 148.963 370.545 149.347C370.439 149.4 370.332 149.451 370.224 149.5C370.332 149.549 370.439 149.6 370.545 149.653C371.263 150.014 371.922 150.473 372.506 151.012C372.154 150.687 371.774 150.391 371.371 150.128L370.408 149.5L371.371 148.872C371.818 148.581 372.235 148.249 372.618 147.882ZM378.776 149.5C378.668 149.549 378.561 149.6 378.455 149.653C377.761 150.002 377.121 150.443 376.551 150.96C376.887 150.655 377.247 150.377 377.629 150.128L378.592 149.5L377.629 148.872C377.226 148.609 376.846 148.313 376.494 147.988C377.078 148.527 377.737 148.986 378.455 149.347C378.561 149.4 378.668 149.451 378.776 149.5ZM374.5 153.776C374.451 153.668 374.4 153.561 374.347 153.455C373.995 152.756 373.55 152.111 373.029 151.539C373.338 151.878 373.62 152.243 373.872 152.629L374.5 153.592L375.128 152.629C375.391 152.226 375.687 151.846 376.012 151.494C375.473 152.078 375.014 152.737 374.653 153.455C374.6 153.561 374.549 153.668 374.5 153.776Z" fill="#5C5B5E" stroke="#8A888E" stroke-width="1.5"/>
<path d="M460.5 102H489C493.418 102 497 105.582 497 110V174C497 178.418 493.418 182 489 182H217" stroke="url(#paint3_linear_2257_215)" stroke-width="2" stroke-dasharray="2 2"/>
<rect x="217" y="162" width="40" height="149" rx="7" transform="rotate(90 217 162)" fill="#090A0F" stroke="url(#paint4_linear_2257_215)" stroke-width="2"/>
<rect x="463" y="162" width="40" height="224" rx="7" transform="rotate(90 463 162)" fill="#090A0F" stroke="url(#paint5_linear_2257_215)" stroke-width="2"/>
<rect width="126" height="12" rx="6" transform="matrix(-1 0 0 1 205 176)" fill="#5C5B5E"/>
<rect width="200" height="12" rx="6" transform="matrix(-1 0 0 1 451 176)" fill="#5C5B5E"/>
<defs>
<linearGradient id="paint0_linear_2257_215" x1="456.443" y1="147.112" x2="459.896" y2="58.9989" gradientUnits="userSpaceOnUse">
<stop stop-color="#A97DFF"/>
<stop offset="0.5" stop-color="#7FE3D9"/>
<stop offset="1" stop-color="#397BFF"/>
</linearGradient>
<linearGradient id="paint1_linear_2257_215" x1="430.5" y1="85.4999" x2="410" y2="121" gradientUnits="userSpaceOnUse">
<stop stop-color="#090A0F"/>
<stop offset="1" stop-color="#A97DFF"/>
</linearGradient>
<radialGradient id="paint2_radial_2257_215" cx="0" cy="0" r="1" gradientUnits="userSpaceOnUse" gradientTransform="translate(400.5 118) rotate(-53.7812) scale(44.0028 396.539)">
<stop stop-color="#A97DFF"/>
<stop offset="0.5" stop-color="#7FE3D9"/>
<stop offset="1" stop-color="#397BFF"/>
</radialGradient>
<linearGradient id="paint3_linear_2257_215" x1="67.5" y1="102" x2="446.955" y2="-35.804" gradientUnits="userSpaceOnUse">
<stop stop-color="#A97DFF"/>
<stop offset="0.495" stop-color="#7FE3D9"/>
<stop offset="1" stop-color="#397BFF"/>
</linearGradient>
<linearGradient id="paint4_linear_2257_215" x1="239" y1="312" x2="213.934" y2="165.282" gradientUnits="userSpaceOnUse">
<stop stop-color="#A97DFF"/>
<stop offset="0.505" stop-color="#7FE3D9"/>
<stop offset="1" stop-color="#397BFF"/>
</linearGradient>
<linearGradient id="paint5_linear_2257_215" x1="485" y1="387" x2="482.786" y2="161.022" gradientUnits="userSpaceOnUse">
<stop stop-color="#A97DFF"/>
<stop offset="0.505" stop-color="#7FE3D9"/>
<stop offset="1" stop-color="#397BFF"/>
</linearGradient>
</defs>
</svg>
