<svg width="552" height="240" viewBox="0 0 552 240" fill="none" xmlns="http://www.w3.org/2000/svg">
<rect x="496" y="102" width="98" height="434" rx="7" transform="rotate(90 496 102)" fill="#090A0F" stroke="url(#paint0_linear_2257_194)" stroke-width="2"/>
<rect width="393" height="12" rx="6" transform="matrix(-1 0 0 1 476 119)" fill="#5C5B5E"/>
<rect width="253" height="12" rx="6" transform="matrix(-1 0 0 1 336 140)" fill="#5C5B5E"/>
<path fill-rule="evenodd" clip-rule="evenodd" d="M221 17C220.951 18.2886 220.669 19.5167 220.195 20.6433C219.142 23.1426 217.143 25.1424 214.643 26.195C213.517 26.6695 212.289 26.9515 211 27C212.289 27.0485 213.517 27.3305 214.643 27.805C217.143 28.8576 219.142 30.8574 220.195 33.3567C220.669 34.4833 220.951 35.7114 221 37C221.049 35.7114 221.331 34.4833 221.805 33.3567C222.858 30.8574 224.857 28.8576 227.357 27.805C228.483 27.3305 229.711 27.0485 231 27C229.711 26.9515 228.483 26.6695 227.357 26.195C224.857 25.1424 222.858 23.1426 221.805 20.6433C221.331 19.5167 221.049 18.2886 221 17ZM221 22.4087C219.925 24.3318 218.332 25.9249 216.409 27C218.332 28.0751 219.925 29.6682 221 31.5913C222.075 29.6682 223.668 28.0751 225.591 27C223.668 25.9249 222.075 24.3318 221 22.4087Z" fill="#8A888E"/>
<path fill-rule="evenodd" clip-rule="evenodd" d="M60 204C59.9628 204.987 59.6518 205.903 59.1407 206.674C58.7551 207.256 58.2556 207.755 57.6739 208.141C56.9027 208.652 55.9868 208.963 55 209C55.9868 209.037 56.9027 209.348 57.6739 209.859C58.2556 210.245 58.7551 210.744 59.1407 211.326C59.6518 212.097 59.9628 213.013 60 214C60.0372 213.013 60.3482 212.097 60.8594 211.326C61.2449 210.744 61.7444 210.245 62.3261 209.859C63.0973 209.348 64.0132 209.037 65 209C64.0132 208.963 63.0973 208.652 62.3261 208.141C61.7444 207.755 61.2449 207.256 60.8594 206.674C60.3482 205.903 60.0372 204.987 60 204ZM60 208.034C59.7116 208.388 59.3878 208.712 59.0339 209C59.3878 209.288 59.7116 209.612 60 209.966C60.2884 209.612 60.6122 209.288 60.9661 209C60.6122 208.712 60.2884 208.388 60 208.034Z" fill="#8A888E"/>
<path fill-rule="evenodd" clip-rule="evenodd" d="M236 39C235.963 39.9868 235.652 40.9027 235.141 41.6739C234.755 42.2556 234.256 42.7551 233.674 43.1406C232.903 43.6518 231.987 43.9628 231 44C231.987 44.0372 232.903 44.3482 233.674 44.8594C234.256 45.2449 234.755 45.7444 235.141 46.3261C235.652 47.0973 235.963 48.0132 236 49C236.037 48.0132 236.348 47.0973 236.859 46.3261C237.245 45.7444 237.744 45.2449 238.326 44.8594C239.097 44.3482 240.013 44.0372 241 44C240.013 43.9628 239.097 43.6518 238.326 43.1406C237.744 42.7551 237.245 42.2556 236.859 41.6739C236.348 40.9027 236.037 39.9868 236 39ZM236 43.0339C235.712 43.3878 235.388 43.7116 235.034 44C235.388 44.2884 235.712 44.6122 236 44.9661C236.288 44.6122 236.612 44.2884 236.966 44C236.612 43.7116 236.288 43.3878 236 43.0339Z" fill="#8A888E"/>
<path fill-rule="evenodd" clip-rule="evenodd" d="M47.5 186C47.4566 187.151 47.1649 188.238 46.6768 189.208C45.9241 190.704 44.7043 191.924 43.2079 192.677C42.2376 193.165 41.151 193.457 40 193.5C41.151 193.543 42.2376 193.835 43.2079 194.323C44.7043 195.076 45.9241 196.296 46.6768 197.792C47.1649 198.762 47.4566 199.849 47.5 201C47.5434 199.849 47.8351 198.762 48.3232 197.792C49.0759 196.296 50.2957 195.076 51.7921 194.323C52.7624 193.835 53.849 193.543 55 193.5C53.849 193.457 52.7624 193.165 51.7921 192.677C50.2957 191.924 49.0759 190.704 48.3232 189.208C47.8351 188.238 47.5434 187.151 47.5 186ZM47.5 190.781C46.7928 191.865 45.8654 192.793 44.7809 193.5C45.8654 194.207 46.7928 195.135 47.5 196.219C48.2072 195.135 49.1346 194.207 50.2191 193.5C49.1346 192.793 48.2072 191.865 47.5 190.781Z" fill="#8A888E"/>
<rect x="158" y="162" width="24" height="75" rx="4" transform="rotate(90 158 162)" fill="#397BFF"/>
<rect x="214" y="44.4922" width="46.2923" height="149.077" rx="4.4072" transform="rotate(90 214 44.4922)" fill="url(#paint1_linear_2257_194)"/>
<rect x="208.292" y="40" width="45.0769" height="146.292" rx="3.4072" transform="rotate(90 208.292 40)" fill="#090A0F" stroke="url(#paint2_linear_2257_194)" stroke-width="2"/>
<path d="M100.834 68.2981L100.73 68.5141L100.771 68.7501L101.948 75.5406L95.1574 74.364L94.9213 74.3232L94.7053 74.4266C93.0018 75.2427 91.1052 75.7113 89.096 75.7113C81.9038 75.7113 76.0735 69.8809 76.0735 62.6888C76.0735 55.4966 81.9038 49.6663 89.096 49.6663C96.2881 49.6663 102.118 55.4966 102.118 62.6888C102.118 64.698 101.65 66.5945 100.834 68.2981Z" stroke="#B0CAFF" stroke-width="1.5"/>
<path d="M88.282 65.0024C88.223 64.7736 88.1037 64.5648 87.9367 64.3978C87.7696 64.2307 87.5608 64.1115 87.332 64.0525L83.2764 63.0067C83.2072 62.987 83.1463 62.9453 83.103 62.888C83.0596 62.8306 83.0361 62.7606 83.0361 62.6887C83.0361 62.6168 83.0596 62.5468 83.103 62.4894C83.1463 62.432 83.2072 62.3903 83.2764 62.3707L87.332 61.3242C87.5607 61.2653 87.7695 61.1461 87.9365 60.9792C88.1036 60.8123 88.2229 60.6036 88.282 60.375L89.3278 56.3193C89.3472 56.2499 89.3889 56.1887 89.4463 56.1451C89.5038 56.1015 89.5739 56.0779 89.6461 56.0779C89.7182 56.0779 89.7884 56.1015 89.8458 56.1451C89.9033 56.1887 89.9449 56.2499 89.9644 56.3193L91.0095 60.375C91.0685 60.6037 91.1878 60.8125 91.3549 60.9796C91.5219 61.1466 91.7307 61.2659 91.9595 61.3249L96.0151 62.37C96.0848 62.3893 96.1463 62.4309 96.1902 62.4884C96.234 62.546 96.2577 62.6163 96.2577 62.6887C96.2577 62.761 96.234 62.8314 96.1902 62.8889C96.1463 62.9465 96.0848 62.9881 96.0151 63.0073L91.9595 64.0525C91.7307 64.1115 91.5219 64.2307 91.3549 64.3978C91.1878 64.5648 91.0685 64.7736 91.0095 65.0024L89.9637 69.058C89.9443 69.1275 89.9027 69.1887 89.8452 69.2323C89.7877 69.2759 89.7176 69.2995 89.6454 69.2995C89.5733 69.2995 89.5031 69.2759 89.4457 69.2323C89.3882 69.1887 89.3466 69.1275 89.3271 69.058L88.282 65.0024Z" fill="#B0CAFF"/>
<circle cx="101.338" cy="50.4465" r="1.53028" fill="#B0CAFF"/>
<circle cx="76.8538" cy="74.9309" r="1.53028" fill="#B0CAFF"/>
<path d="M119.113 67.1146C118.372 67.1146 117.724 66.9979 117.17 66.7644C116.616 66.5263 116.179 66.1967 115.858 65.7755C115.538 65.3543 115.355 64.8667 115.309 64.3128L115.302 64.2304H116.792L116.799 64.299C116.831 64.6012 116.95 64.8644 117.156 65.0888C117.362 65.3085 117.639 65.4802 117.987 65.6038C118.335 65.7274 118.733 65.7892 119.182 65.7892C119.603 65.7892 119.976 65.7229 120.301 65.5901C120.626 65.4573 120.883 65.2742 121.071 65.0407C121.258 64.8026 121.352 64.5302 121.352 64.2235V64.2166C121.352 63.8366 121.208 63.5208 120.919 63.269C120.631 63.0126 120.157 62.8134 119.498 62.6715L118.413 62.438C117.41 62.2228 116.68 61.8818 116.222 61.4148C115.764 60.9478 115.536 60.3481 115.536 59.6156V59.6087C115.54 59.041 115.693 58.5397 115.996 58.1048C116.302 57.6698 116.726 57.3311 117.266 57.0884C117.806 56.8458 118.424 56.7245 119.12 56.7245C119.816 56.7245 120.425 56.8458 120.947 57.0884C121.473 57.3265 121.888 57.6515 122.19 58.0636C122.492 58.471 122.661 58.9334 122.698 59.4508L122.705 59.54H121.228L121.215 59.4508C121.174 59.1761 121.061 58.9334 120.878 58.7228C120.695 58.5122 120.452 58.3474 120.15 58.2284C119.853 58.1048 119.503 58.0453 119.1 58.0498C118.71 58.0498 118.363 58.1093 118.056 58.2284C117.754 58.3428 117.513 58.5122 117.335 58.7366C117.161 58.9563 117.074 59.2241 117.074 59.54V59.5469C117.074 59.9132 117.213 60.2199 117.493 60.4671C117.777 60.7143 118.239 60.9066 118.88 61.044L119.965 61.2843C121.004 61.5086 121.75 61.8406 122.204 62.2801C122.661 62.715 122.89 63.2987 122.89 64.0312V64.0381C122.89 64.6699 122.735 65.2147 122.423 65.6725C122.117 66.1303 121.679 66.4851 121.112 66.7369C120.549 66.9887 119.882 67.1146 119.113 67.1146ZM124.751 66.8743V59.4164H126.214V60.5633H126.331C126.491 60.1558 126.747 59.8399 127.1 59.6156C127.453 59.3912 127.871 59.2791 128.357 59.2791C128.695 59.2791 129 59.334 129.27 59.4439C129.54 59.5538 129.771 59.7094 129.964 59.9109C130.16 60.1077 130.314 60.3389 130.424 60.6045H130.54C130.664 60.3389 130.838 60.1077 131.062 59.9109C131.287 59.7094 131.548 59.5538 131.845 59.4439C132.143 59.334 132.463 59.2791 132.807 59.2791C133.31 59.2791 133.738 59.3752 134.091 59.5675C134.448 59.7598 134.72 60.0391 134.908 60.4053C135.1 60.7716 135.196 61.2134 135.196 61.7307V66.8743H133.727V62.0878C133.727 61.5705 133.608 61.1836 133.37 60.9272C133.132 60.6663 132.77 60.5358 132.285 60.5358C131.964 60.5358 131.685 60.609 131.447 60.7555C131.209 60.8975 131.023 61.092 130.891 61.3393C130.763 61.5819 130.698 61.8543 130.698 62.1565V66.8743H129.236V61.9298C129.236 61.5041 129.105 61.1653 128.844 60.9135C128.583 60.6617 128.233 60.5358 127.794 60.5358C127.491 60.5358 127.221 60.6136 126.983 60.7693C126.745 60.9249 126.557 61.1378 126.42 61.4079C126.283 61.6735 126.214 61.9688 126.214 62.2938V66.8743H124.751ZM139.317 66.9979C138.845 66.9979 138.422 66.9086 138.046 66.7301C137.676 66.5469 137.383 66.2906 137.167 65.9609C136.952 65.6267 136.845 65.233 136.845 64.7798V64.766C136.845 64.0976 137.085 63.5757 137.566 63.2003C138.051 62.8203 138.738 62.6051 139.626 62.5548L142.373 62.3899V63.4338L139.818 63.5986C139.301 63.6261 138.921 63.7336 138.678 63.9213C138.436 64.109 138.314 64.37 138.314 64.7042V64.7179C138.314 65.0659 138.445 65.3383 138.706 65.5352C138.971 65.7274 139.305 65.8236 139.708 65.8236C140.084 65.8236 140.416 65.748 140.704 65.597C140.997 65.4459 141.226 65.2421 141.391 64.9858C141.56 64.7294 141.645 64.441 141.645 64.1205V61.7719C141.645 61.3599 141.517 61.044 141.26 60.8242C141.004 60.6045 140.622 60.4946 140.113 60.4946C139.697 60.4946 139.356 60.5678 139.09 60.7143C138.829 60.8608 138.653 61.0669 138.561 61.3324L138.555 61.3599H137.14L137.147 61.3049C137.206 60.8975 137.369 60.5426 137.634 60.2405C137.9 59.9383 138.25 59.7026 138.685 59.5332C139.12 59.3638 139.619 59.2791 140.182 59.2791C140.805 59.2791 141.334 59.3798 141.768 59.5812C142.203 59.7781 142.533 60.0642 142.757 60.4396C142.986 60.8105 143.101 61.2546 143.101 61.7719V66.8743H141.645V65.8167H141.528C141.386 66.0639 141.205 66.2768 140.986 66.4554C140.766 66.6339 140.516 66.769 140.237 66.8605C139.958 66.9521 139.651 66.9979 139.317 66.9979ZM145.216 66.8743V59.4164H146.679V60.5426H146.795C146.928 60.1443 147.162 59.8376 147.496 59.6224C147.835 59.4027 148.251 59.2928 148.746 59.2928C148.869 59.2928 148.991 59.2997 149.11 59.3134C149.229 59.3271 149.325 59.3409 149.398 59.3546V60.7143C149.265 60.6869 149.132 60.6663 149 60.6525C148.872 60.6388 148.739 60.6319 148.601 60.6319C148.221 60.6319 147.887 60.7052 147.599 60.8517C147.31 60.9982 147.084 61.2042 146.919 61.4697C146.759 61.7353 146.679 62.0466 146.679 62.4037V66.8743H145.216ZM154.013 66.9223C153.202 66.9223 152.616 66.7667 152.255 66.4554C151.893 66.1395 151.712 65.6244 151.712 64.9102V60.5839H150.545V59.4164H151.712V57.5417H153.209V59.4164H154.809V60.5839H153.209V64.56C153.209 64.9629 153.289 65.2536 153.45 65.4321C153.614 65.6107 153.88 65.7 154.246 65.7C154.361 65.7 154.457 65.6977 154.535 65.6931C154.613 65.6885 154.704 65.6817 154.809 65.6725V66.8468C154.695 66.8651 154.569 66.8811 154.432 66.8949C154.299 66.9132 154.159 66.9223 154.013 66.9223ZM160.406 66.8743V59.4164H161.869V60.5426H161.986C162.118 60.1443 162.352 59.8376 162.686 59.6224C163.025 59.4027 163.442 59.2928 163.936 59.2928C164.06 59.2928 164.181 59.2997 164.3 59.3134C164.419 59.3271 164.515 59.3409 164.588 59.3546V60.7143C164.456 60.6869 164.323 60.6663 164.19 60.6525C164.062 60.6388 163.929 60.6319 163.792 60.6319C163.412 60.6319 163.078 60.7052 162.789 60.8517C162.501 60.9982 162.274 61.2042 162.109 61.4697C161.949 61.7353 161.869 62.0466 161.869 62.4037V66.8743H160.406ZM168.949 67.0185C168.226 67.0185 167.603 66.8628 167.081 66.5515C166.559 66.2356 166.156 65.7892 165.873 65.2124C165.593 64.6355 165.454 63.9534 165.454 63.1659V63.1591C165.454 62.3854 165.593 61.7078 165.873 61.1264C166.156 60.5449 166.555 60.0917 167.067 59.7666C167.58 59.4416 168.182 59.2791 168.874 59.2791C169.569 59.2791 170.167 59.4347 170.666 59.746C171.165 60.0574 171.549 60.4946 171.82 61.0577C172.09 61.6162 172.225 62.2686 172.225 63.0149V63.5368H166.202V62.4792H171.497L170.783 63.4544V62.8707C170.783 62.335 170.703 61.8909 170.542 61.5384C170.382 61.1859 170.158 60.9226 169.869 60.7487C169.585 60.5747 169.256 60.4877 168.88 60.4877C168.51 60.4877 168.178 60.5793 167.885 60.7624C167.592 60.9455 167.36 61.2156 167.191 61.5727C167.022 61.9253 166.937 62.3579 166.937 62.8707V63.4612C166.937 63.9511 167.019 64.3723 167.184 64.7248C167.349 65.0728 167.585 65.3406 167.892 65.5283C168.198 65.7114 168.562 65.803 168.983 65.803C169.304 65.803 169.581 65.7595 169.814 65.6725C170.048 65.5809 170.238 65.4688 170.384 65.336C170.535 65.2032 170.641 65.0705 170.7 64.9377L170.721 64.8828H172.142L172.129 64.9446C172.065 65.1918 171.952 65.4367 171.792 65.6794C171.632 65.922 171.421 66.144 171.16 66.3455C170.899 66.5469 170.584 66.7095 170.213 66.8331C169.846 66.9567 169.425 67.0185 168.949 67.0185ZM174.003 69.3602V59.4164H175.466V60.5976H175.583C175.725 60.3229 175.908 60.0894 176.132 59.8971C176.361 59.7003 176.622 59.5515 176.915 59.4508C177.208 59.3455 177.529 59.2928 177.877 59.2928C178.504 59.2928 179.049 59.4508 179.511 59.7666C179.973 60.0825 180.33 60.5289 180.582 61.1058C180.839 61.678 180.967 62.3556 180.967 63.1385V63.1522C180.967 63.9397 180.839 64.6218 180.582 65.1987C180.33 65.7709 179.973 66.215 179.511 66.5309C179.049 66.8422 178.504 66.9979 177.877 66.9979C177.533 66.9979 177.213 66.9452 176.915 66.8399C176.618 66.7301 176.354 66.579 176.125 66.3867C175.896 66.1944 175.716 65.9632 175.583 65.6931H175.466V69.3602H174.003ZM177.465 65.7412C177.886 65.7412 178.245 65.6382 178.543 65.4321C178.84 65.2215 179.069 64.924 179.229 64.5394C179.39 64.1503 179.47 63.6879 179.47 63.1522V63.1385C179.47 62.5983 179.39 62.1359 179.229 61.7513C179.069 61.3667 178.84 61.0714 178.543 60.8654C178.245 60.6548 177.886 60.5495 177.465 60.5495C177.048 60.5495 176.686 60.6548 176.379 60.8654C176.077 61.076 175.844 61.3736 175.679 61.7582C175.519 62.1427 175.439 62.6028 175.439 63.1385V63.1522C175.439 63.6833 175.521 64.1434 175.686 64.5325C175.851 64.9217 176.084 65.2215 176.386 65.4321C176.689 65.6382 177.048 65.7412 177.465 65.7412ZM182.835 66.8743V56.4978H184.297V66.8743H182.835ZM187.25 69.4907C187.159 69.4907 187.06 69.4884 186.955 69.4838C186.85 69.4792 186.749 69.4701 186.653 69.4564V68.3027C186.726 68.3118 186.806 68.3187 186.893 68.3233C186.985 68.3278 187.072 68.3301 187.154 68.3301C187.502 68.3301 187.784 68.2477 187.999 68.0829C188.214 67.9227 188.377 67.6503 188.486 67.2657L188.603 66.8811L185.891 59.4164H187.477L189.599 66.1532L189.132 65.3909H189.702L189.242 66.1532L191.357 59.4164H192.902L190.114 67.1764C189.903 67.767 189.672 68.2294 189.42 68.5636C189.169 68.9024 188.869 69.1405 188.521 69.2778C188.173 69.4197 187.749 69.4907 187.25 69.4907Z" fill="#B0CAFF"/>
<defs>
<linearGradient id="paint0_linear_2257_194" x1="545.5" y1="535" x2="507.397" y2="104.505" gradientUnits="userSpaceOnUse">
<stop stop-color="#A97DFF"/>
<stop offset="0.5" stop-color="#7FE3D9"/>
<stop offset="0.975" stop-color="#397BFF"/>
</linearGradient>
<linearGradient id="paint1_linear_2257_194" x1="237.508" y1="196.992" x2="205.701" y2="51.4429" gradientUnits="userSpaceOnUse">
<stop stop-color="#A97DFF"/>
<stop offset="0.5" stop-color="#8DFCF1"/>
<stop offset="1" stop-color="#397BFF"/>
</linearGradient>
<linearGradient id="paint2_linear_2257_194" x1="233.292" y1="187.292" x2="201.166" y2="46.6297" gradientUnits="userSpaceOnUse">
<stop stop-color="#A97DFF"/>
<stop offset="0.5" stop-color="#7FE3D9"/>
<stop offset="1" stop-color="#397BFF"/>
</linearGradient>
</defs>
</svg>
