<svg width="160" height="160" viewBox="0 0 160 160" fill="none" xmlns="http://www.w3.org/2000/svg">
<path d="M45 46.9333V128H115V32H60.0769L45 46.9333Z" fill="url(#paint0_linear_303_1722)"/>
<path d="M60.0769 46.9333V32L45 46.9333H60.0769Z" fill="#B0CAFF"/>
<path d="M75.3562 66.2386L75.8828 66.4121L76.2031 65.9596L76.2968 65.8272C78.2574 63.0576 82.3671 63.0576 84.3277 65.8272L84.332 65.8333L84.6578 66.2936L85.1905 66.1084L85.1975 66.106L85.1975 66.106C88.4026 64.9914 91.7471 67.3797 91.7331 70.773L91.7325 70.9351L91.7302 71.4894L92.2595 71.6542L92.4143 71.7024C95.6542 72.7112 96.9242 76.6198 94.896 79.3403C94.896 79.3403 94.896 79.3403 94.896 79.3403L94.8916 79.3463L94.5545 79.7984L94.8952 80.2477L94.8997 80.2537L94.8997 80.2537C96.9502 82.9575 95.7123 86.8763 92.4807 87.9117L92.3263 87.9611L91.7984 88.1303L91.8052 88.6846L91.8072 88.8466C91.849 92.2397 88.5241 94.6554 85.31 93.5671L85.31 93.5671L85.303 93.5647L84.7689 93.3839L84.4469 93.8468L84.4426 93.8529L84.4426 93.853C82.5048 96.6386 78.3952 96.6723 76.4119 93.9188L76.3171 93.7872L75.9931 93.3373L75.468 93.5151L75.3145 93.5671C72.1004 94.6554 68.7756 92.2397 68.8173 88.8466L68.8174 88.8393L68.8244 88.2753L68.2845 88.1122L68.2775 88.11C68.2775 88.11 68.2774 88.11 68.2774 88.11C65.0294 87.1278 63.7275 83.2298 65.7333 80.4928L65.1332 80.053L65.7333 80.4928L65.8291 80.362L66.1568 79.9148L65.8255 79.4703L65.7286 79.3403C63.7003 76.6198 64.9703 72.7112 68.2102 71.7024L67.9873 70.9864L68.2103 71.7024L68.2173 71.7002L68.7558 71.5326L68.7442 70.9688L68.744 70.9615C68.6745 67.5688 71.9794 65.126 75.2023 66.1879L75.3562 66.2386Z" stroke="white" stroke-width="1.5"/>
<circle cx="80.3123" cy="79.8567" r="12" fill="#71CAC1"/>
<path d="M74.3123 93.5V110.857L80.3123 106.357L86.3123 110.857V93.5" stroke="white" stroke-width="1.5"/>
<path d="M113 68C124.598 68 134 58.598 134 47C134 35.402 124.598 26 113 26C101.402 26 92 35.402 92 47C92 58.598 101.402 68 113 68Z" fill="url(#paint1_linear_303_1722)"/>
<path d="M113 36.4996V57.4996" stroke="white" stroke-width="1.5"/>
<path d="M123.5 47.0004L102.5 47.0004" stroke="white" stroke-width="1.5"/>
<path fill-rule="evenodd" clip-rule="evenodd" d="M97 17C96.9709 17.7732 96.8017 18.51 96.517 19.186C95.8855 20.6856 94.6856 21.8855 93.186 22.517C92.51 22.8017 91.7732 22.9709 91 23C91.7732 23.0291 92.51 23.1983 93.186 23.483C94.6856 24.1146 95.8855 25.3144 96.517 26.814C96.8017 27.49 96.9709 28.2268 97 29C97.0291 28.2268 97.1983 27.49 97.483 26.814C98.1146 25.3144 99.3144 24.1146 100.814 23.483C101.49 23.1983 102.227 23.0291 103 23C102.227 22.9709 101.49 22.8017 100.814 22.517C99.3144 21.8855 98.1146 20.6856 97.483 19.186C97.1983 18.51 97.0291 17.7732 97 17ZM97 20.2452C96.3549 21.3991 95.3991 22.3549 94.2452 23C95.3991 23.6451 96.3549 24.6009 97 25.7548C97.6451 24.6009 98.6009 23.6451 99.7548 23C98.6009 22.3549 97.6451 21.3991 97 20.2452Z" fill="white"/>
<path fill-rule="evenodd" clip-rule="evenodd" d="M116 13C115.978 13.6908 115.791 14.3319 115.484 14.8717C115.253 15.2789 114.953 15.6286 114.604 15.8985C114.142 16.2563 113.592 16.474 113 16.5C113.592 16.526 114.142 16.7437 114.604 17.1015C114.953 17.3714 115.253 17.7211 115.484 18.1283C115.791 18.6681 115.978 19.3092 116 20C116.022 19.3092 116.209 18.6681 116.516 18.1283C116.747 17.7211 117.047 17.3714 117.396 17.1015C117.858 16.7437 118.408 16.526 119 16.5C118.408 16.474 117.858 16.2563 117.396 15.8985C117.047 15.6286 116.747 15.2789 116.516 14.8717C116.209 14.3319 116.022 13.6908 116 13ZM116 15.8237C115.827 16.0714 115.633 16.2981 115.42 16.5C115.633 16.7019 115.827 16.9286 116 17.1763C116.173 16.9286 116.367 16.7019 116.58 16.5C116.367 16.2981 116.173 16.0714 116 15.8237Z" fill="white"/>
<path fill-rule="evenodd" clip-rule="evenodd" d="M127.5 71C127.474 71.6906 127.299 72.3426 127.006 72.9248C126.554 73.8226 125.823 74.5545 124.925 75.0061C124.343 75.299 123.691 75.474 123 75.5C123.691 75.526 124.343 75.701 124.925 75.9939C125.823 76.4455 126.554 77.1774 127.006 78.0752C127.299 78.6574 127.474 79.3094 127.5 80C127.526 79.3094 127.701 78.6574 127.994 78.0752C128.446 77.1774 129.177 76.4455 130.075 75.9939C130.657 75.701 131.309 75.526 132 75.5C131.309 75.474 130.657 75.299 130.075 75.0061C129.177 74.5545 128.446 73.8226 127.994 72.9248C127.701 72.3426 127.526 71.6906 127.5 71ZM127.5 73.8686C127.076 74.5192 126.519 75.0757 125.869 75.5C126.519 75.9243 127.076 76.4808 127.5 77.1314C127.924 76.4808 128.481 75.9243 129.131 75.5C128.481 75.0757 127.924 74.5192 127.5 73.8686Z" fill="white"/>
<defs>
<linearGradient id="paint0_linear_303_1722" x1="80" y1="32" x2="80" y2="128" gradientUnits="userSpaceOnUse">
<stop stop-color="#397BFF"/>
<stop offset="1" stop-color="#9871E6"/>
</linearGradient>
<linearGradient id="paint1_linear_303_1722" x1="107.75" y1="39" x2="128" y2="72" gradientUnits="userSpaceOnUse">
<stop stop-color="#71CAC1"/>
<stop offset="1" stop-color="#9871E6"/>
</linearGradient>
</defs>
</svg>
