<svg width="160" height="160" viewBox="0 0 160 160" fill="none" xmlns="http://www.w3.org/2000/svg">
<path d="M72.5216 41.3516C75.3863 36.8828 81.9162 36.8828 84.7809 41.3516L132.139 115.231C135.246 120.077 131.766 126.441 126.01 126.441H31.2927C25.5366 126.441 22.0567 120.077 25.1631 115.231L72.5216 41.3516Z" fill="url(#paint0_linear_5_49)"/>
<path d="M77.4258 97.1601L75.8462 71.2618V67H82.4194V71.2618L80.8398 97.1601H77.4258ZM75.1328 105.574C75.1328 103.225 76.9162 101.313 79.1583 101.313C81.2474 101.313 83.1328 103.225 83.1328 105.574C83.1328 108.033 81.3493 110 79.1583 110C76.9162 110 75.1328 108.033 75.1328 105.574Z" fill="#090A0F"/>
<path d="M117.923 53.1612L117.02 36.8946L117.034 34.2186L121.143 34.24L121.129 36.9159L120.057 53.1723L117.923 53.1612ZM116.462 58.4371C116.47 56.9619 117.591 55.7669 118.992 55.7742C120.298 55.781 121.47 56.9879 121.462 58.4631C121.454 60.0069 120.333 61.2361 118.964 61.229C117.563 61.2217 116.454 59.9809 116.462 58.4371Z" fill="white"/>
<path d="M20.4063 90.2053L15.1399 74.7883L14.4299 72.2082L18.3909 71.1182L19.1009 73.6983L22.4636 89.6392L20.4063 90.2053ZM20.4263 95.6796C20.0349 94.2572 20.791 92.8038 22.1421 92.432C23.401 92.0855 24.8557 92.9306 25.2471 94.353C25.6567 95.8415 24.9097 97.328 23.5893 97.6914C22.2383 98.0631 20.8359 97.1681 20.4263 95.6796Z" fill="white"/>
<path d="M136.416 93.5854L140.117 77.7199L140.882 75.1555L144.819 76.3298L144.054 78.8941L138.46 94.1953L136.416 93.5854ZM133.532 98.2387C133.954 96.825 135.365 95.993 136.708 96.3935C137.959 96.7667 138.745 98.2542 138.324 99.6678C137.882 101.147 136.461 102.012 135.149 101.621C133.806 101.22 133.091 99.7182 133.532 98.2387Z" fill="white"/>
<path d="M40.6777 51.5573L44.3796 35.6918L45.1445 33.1274L49.0814 34.3017L48.3165 36.866L42.7225 52.1672L40.6777 51.5573ZM37.7943 56.2106C38.2159 54.797 39.6273 53.9649 40.9701 54.3654C42.2214 54.7386 43.0073 56.2261 42.5857 57.6398C42.1444 59.1192 40.7233 59.9841 39.411 59.5927C38.0681 59.1922 37.353 57.6901 37.7943 56.2106Z" fill="white"/>
<defs>
<linearGradient id="paint0_linear_5_49" x1="62.1585" y1="38.4531" x2="95.0955" y2="133.97" gradientUnits="userSpaceOnUse">
<stop stop-color="#FFAD89"/>
<stop offset="1" stop-color="#FFF6B6"/>
</linearGradient>
</defs>
</svg>
