<svg width="160" height="160" viewBox="0 0 160 160" fill="none" xmlns="http://www.w3.org/2000/svg">
<path fill-rule="evenodd" clip-rule="evenodd" d="M81.375 28C81.375 30.1865 83.1475 31.959 85.334 31.959H90.6522C92.9153 31.959 94.75 33.7937 94.75 36.0569C94.75 38.32 92.9153 40.1547 90.6522 40.1547H70.1087C68.806 40.1547 67.75 41.2107 67.75 42.5134C67.75 43.816 68.806 44.8721 70.1087 44.8721H76.2471C79.0791 44.8721 81.375 47.1679 81.375 50H79.875C79.875 47.9964 78.2507 46.3721 76.2471 46.3721H70.1087C67.9776 46.3721 66.25 44.6445 66.25 42.5134C66.25 40.3823 67.9776 38.6547 70.1087 38.6547H90.6522C92.0869 38.6547 93.25 37.4916 93.25 36.0569C93.25 34.6221 92.0869 33.459 90.6522 33.459H85.334C82.3191 33.459 79.875 31.0149 79.875 28H81.375Z" fill="white"/>
<path fill-rule="evenodd" clip-rule="evenodd" d="M111.624 86.8234C113.456 93.6584 120.481 97.7145 127.316 95.8831C134.151 94.0517 138.207 87.0262 136.376 80.1912C134.544 73.3563 127.519 69.3001 120.684 71.1315C113.849 72.963 109.793 79.9885 111.624 86.8234ZM104.686 88.6824C107.544 99.3491 118.508 105.679 129.175 102.821C139.842 99.9629 146.172 88.9989 143.314 78.3322C140.456 67.6656 129.492 61.3355 118.825 64.1936C108.158 67.0517 101.828 78.0157 104.686 88.6824Z" fill="url(#paint0_linear_5_52)"/>
<path d="M39 53H116V89.5C116 110.763 98.763 128 77.5 128C56.237 128 39 110.763 39 89.5V53Z" fill="url(#paint1_radial_5_52)"/>
<path d="M16 119H140C101.009 134.63 57.9884 135.003 18.7588 120.051L16 119Z" fill="url(#paint2_linear_5_52)"/>
<path fill-rule="evenodd" clip-rule="evenodd" d="M155 131.75H5V130.25H155V131.75Z" fill="white"/>
<defs>
<linearGradient id="paint0_linear_5_52" x1="143.314" y1="78.3322" x2="104.686" y2="88.6824" gradientUnits="userSpaceOnUse">
<stop stop-color="#B0CAFF"/>
<stop offset="1" stop-color="#397BFF"/>
</linearGradient>
<radialGradient id="paint1_radial_5_52" cx="0" cy="0" r="1" gradientUnits="userSpaceOnUse" gradientTransform="translate(51.8333 63.9091) rotate(43.861) scale(81.2495 82.9202)">
<stop stop-color="#B0CAFF"/>
<stop offset="0.653805" stop-color="#6195FF"/>
<stop offset="1" stop-color="#397BFF"/>
</radialGradient>
<linearGradient id="paint2_linear_5_52" x1="16" y1="131.113" x2="140" y2="131.113" gradientUnits="userSpaceOnUse">
<stop stop-color="#B0CAFF"/>
<stop offset="1" stop-color="#397BFF"/>
</linearGradient>
</defs>
</svg>
