
<svg width="160" height="160" viewBox="0 0 160 160" fill="none" xmlns="http://www.w3.org/2000/svg">
<path d="M83 131C110.614 131 133 108.614 133 81C133 53.3858 110.614 31 83 31C55.3858 31 33 53.3858 33 81C33 108.614 55.3858 131 83 131Z" stroke="#090A0F" stroke-width="1.5" stroke-miterlimit="10"/>
<rect x="41" y="39" width="84" height="84" rx="40" fill="#B0CAFF"/>
<path fill-rule="evenodd" clip-rule="evenodd" d="M73.8849 79.7391H70.7706C64.767 79.7391 59.9 84.6061 59.9 90.6097V101.929C65.9615 107.553 74.0792 110.992 83 110.992C91.9209 110.992 100.039 107.553 106.1 101.929V90.6097C106.1 84.6061 101.233 79.7391 95.2294 79.7391H92.1151C89.8759 82.2409 86.6218 83.8153 83 83.8153C79.3782 83.8153 76.1242 82.2409 73.8849 79.7391Z" fill="#397BFF"/>
<rect x="72.8794" y="53.3127" width="20.2412" height="24.3176" rx="10.1206" stroke="#090A0F" stroke-width="1.5"/>
<path fill-rule="evenodd" clip-rule="evenodd" d="M132 39C131.971 39.7732 131.802 40.51 131.517 41.186C130.885 42.6856 129.686 43.8855 128.186 44.517C127.51 44.8017 126.773 44.9709 126 45C126.773 45.0291 127.51 45.1983 128.186 45.483C129.686 46.1146 130.885 47.3144 131.517 48.814C131.802 49.49 131.971 50.2268 132 51C132.029 50.2268 132.198 49.49 132.483 48.814C133.115 47.3144 134.314 46.1146 135.814 45.483C136.49 45.1983 137.227 45.0291 138 45C137.227 44.9709 136.49 44.8017 135.814 44.517C134.314 43.8855 133.115 42.6856 132.483 41.186C132.198 40.51 132.029 39.7732 132 39ZM132 42.2452C131.355 43.3991 130.399 44.3549 129.245 45C130.399 45.6451 131.355 46.6009 132 47.7548C132.645 46.6009 133.601 45.6451 134.755 45C133.601 44.3549 132.645 43.3991 132 42.2452Z" fill="#090A0F"/>
<path fill-rule="evenodd" clip-rule="evenodd" d="M28.5 109C28.474 109.691 28.299 110.343 28.0061 110.925C27.5545 111.823 26.8226 112.554 25.9248 113.006C25.3426 113.299 24.6906 113.474 24 113.5C24.6906 113.526 25.3426 113.701 25.9248 113.994C26.8226 114.446 27.5545 115.177 28.0061 116.075C28.299 116.657 28.474 117.309 28.5 118C28.526 117.309 28.701 116.657 28.9939 116.075C29.4455 115.177 30.1774 114.446 31.0752 113.994C31.6574 113.701 32.3094 113.526 33 113.5C32.3094 113.474 31.6574 113.299 31.0752 113.006C30.1774 112.554 29.4455 111.823 28.9939 110.925C28.701 110.343 28.526 109.691 28.5 109ZM28.5 111.869C28.0757 112.519 27.5192 113.076 26.8686 113.5C27.5192 113.924 28.0757 114.481 28.5 115.131C28.9243 114.481 29.4808 113.924 30.1314 113.5C29.4808 113.076 28.9243 112.519 28.5 111.869Z" fill="#090A0F"/>
<path fill-rule="evenodd" clip-rule="evenodd" d="M44.5 127C44.4768 127.704 44.301 128.363 44.0093 128.936C43.6921 129.558 43.2379 130.077 42.6936 130.439C42.193 130.773 41.6163 130.973 41 131C41.6163 131.027 42.193 131.227 42.6936 131.561C43.2379 131.923 43.6921 132.442 44.0093 133.064C44.301 133.637 44.4768 134.296 44.5 135C44.5232 134.296 44.699 133.637 44.9907 133.064C45.3079 132.442 45.7621 131.923 46.3064 131.561C46.807 131.227 47.3837 131.027 48 131C47.3837 130.973 46.807 130.773 46.3064 130.439C45.7621 130.077 45.3079 129.558 44.9907 128.936C44.699 128.363 44.5232 127.704 44.5 127ZM44.5 129.901C44.2297 130.32 43.9051 130.691 43.5381 131C43.9051 131.309 44.2297 131.68 44.5 132.099C44.7703 131.68 45.0949 131.309 45.4619 131C45.0949 130.691 44.7703 130.32 44.5 129.901Z" fill="#090A0F"/>
<path fill-rule="evenodd" clip-rule="evenodd" d="M118 27C117.978 27.6908 117.791 28.3319 117.484 28.8717C117.253 29.2789 116.953 29.6286 116.604 29.8985C116.142 30.2563 115.592 30.474 115 30.5C115.592 30.526 116.142 30.7437 116.604 31.1015C116.953 31.3714 117.253 31.7211 117.484 32.1283C117.791 32.6681 117.978 33.3092 118 34C118.022 33.3092 118.209 32.6681 118.516 32.1283C118.747 31.7211 119.047 31.3714 119.396 31.1015C119.858 30.7437 120.408 30.526 121 30.5C120.408 30.474 119.858 30.2563 119.396 29.8985C119.047 29.6286 118.747 29.2789 118.516 28.8717C118.209 28.3319 118.022 27.6908 118 27ZM118 29.8237C117.827 30.0714 117.633 30.2981 117.42 30.5C117.633 30.7019 117.827 30.9286 118 31.1763C118.173 30.9286 118.367 30.7019 118.58 30.5C118.367 30.2981 118.173 30.0714 118 29.8237Z" fill="#090A0F"/>
<path d="M132 101C143.598 101 153 91.598 153 80C153 68.402 143.598 59 132 59C120.402 59 111 68.402 111 80C111 91.598 120.402 101 132 101Z" fill="url(#paint0_linear_303_1720)"/>
<path d="M132 69.4996V90.4996" stroke="#090A0F" stroke-width="1.5"/>
<path d="M142.5 80.0004L121.5 80.0004" stroke="#090A0F" stroke-width="1.5"/>
<defs>
<linearGradient id="paint0_linear_303_1720" x1="126.75" y1="72" x2="147" y2="105" gradientUnits="userSpaceOnUse">
<stop stop-color="#7FE3D9"/>
<stop offset="1" stop-color="#A97DFF"/>
</linearGradient>
</defs>
</svg>
