<svg width="160" height="160" viewBox="0 0 160 160" fill="none" xmlns="http://www.w3.org/2000/svg">
<path d="M143 48L143 123C143 125.209 141.209 127 139 127L21 127C18.7909 127 17 125.209 17 123L17 48L143 48Z" fill="url(#paint0_linear_5_43)"/>
<path d="M134.243 37.2929C134.633 36.9024 135.266 36.9024 135.657 37.2929L136.532 38.1679C136.922 38.5584 136.922 39.1916 136.532 39.5821L135.202 40.9124L136.532 42.2426C136.922 42.6332 136.922 43.2663 136.532 43.6569L135.657 44.5318C135.266 44.9223 134.633 44.9223 134.243 44.5318L132.912 43.2015L131.582 44.5318C131.192 44.9223 130.558 44.9223 130.168 44.5318L129.293 43.6569C128.902 43.2663 128.902 42.6332 129.293 42.2426L130.623 40.9124L129.293 39.5821C128.902 39.1916 128.902 38.5584 129.293 38.1679L130.168 37.2929C130.558 36.9024 131.192 36.9024 131.582 37.2929L132.912 38.6232L134.243 37.2929Z" fill="white"/>
<circle cx="27" cy="41" r="3" fill="white"/>
<circle cx="38" cy="41" r="3" fill="white"/>
<circle cx="49" cy="41" r="3" fill="white"/>
<path fill-rule="evenodd" clip-rule="evenodd" d="M139 34.5H21C19.6193 34.5 18.5 35.6193 18.5 37V46.5H141.5V37C141.5 35.6193 140.381 34.5 139 34.5ZM21 33C18.7909 33 17 34.7909 17 37V48H143V37C143 34.7909 141.209 33 139 33H21Z" fill="white"/>
<path d="M89 113L92.8886 105.245C93.5073 104.011 95.1601 103.76 96.1173 104.755L99.0356 107.786C99.8535 108.636 101.225 108.597 101.994 107.703L104.695 104.558C105.314 103.837 106.354 103.652 107.184 104.114L111.069 106.276C112.138 106.87 113.485 106.376 113.914 105.231L116.994 97.0237C117.591 95.4318 119.777 95.2641 120.61 96.7463L123.711 102.263C124.619 103.879 127.047 103.496 127.415 101.679L129 93.8451" stroke="#FF996C" stroke-width="1.5"/>
<path d="M129 92.7766L125.934 99.8042C125.311 101.233 123.374 101.451 122.472 100.195L121.221 98.4515C120.43 97.349 118.784 97.3536 117.978 98.4605L116.442 100.57C115.783 101.475 114.517 101.674 113.626 101.013L111.721 99.5984C110.629 98.7884 109.055 99.2923 108.621 100.59L106.398 107.242C105.808 109.007 103.347 109.107 102.648 107.395L101.401 104.343C100.652 102.509 97.9662 102.794 97.5847 104.748L96.3019 111.32" stroke="#6195FF" stroke-width="1.5"/>
<path fill-rule="evenodd" clip-rule="evenodd" d="M91.6426 64.5H127.643C128.471 64.5 129.143 65.1716 129.143 66C129.143 66.8284 128.471 67.5 127.643 67.5H91.6426C90.8142 67.5 90.1426 66.8284 90.1426 66C90.1426 65.1716 90.8142 64.5 91.6426 64.5ZM127.643 63C129.299 63 130.643 64.3431 130.643 66C130.643 67.6569 129.299 69 127.643 69H91.6426C89.9857 69 88.6426 67.6569 88.6426 66C88.6426 64.3431 89.9857 63 91.6426 63H127.643Z" fill="white"/>
<path fill-rule="evenodd" clip-rule="evenodd" d="M91.6426 74.5H110.643C111.471 74.5 112.143 75.1716 112.143 76C112.143 76.8284 111.471 77.5 110.643 77.5H91.6426C90.8142 77.5 90.1426 76.8284 90.1426 76C90.1426 75.1716 90.8142 74.5 91.6426 74.5ZM110.643 73C112.299 73 113.643 74.3431 113.643 76C113.643 77.6569 112.299 79 110.643 79H91.6426C89.9857 79 88.6426 77.6569 88.6426 76C88.6426 74.3431 89.9857 73 91.6426 73H110.643Z" fill="white"/>
<path d="M52.3213 113.701C66.306 113.701 77.6425 102.352 77.6425 88.3507C77.6425 74.3497 66.306 63 52.3213 63C38.3365 63 27 74.3497 27 88.3507C27 102.352 38.3365 113.701 52.3213 113.701Z" fill="#BA97FF"/>
<path d="M77.5893 89.3049C77.5893 88.9903 77.6408 88.6774 77.6408 88.3507C77.6408 74.3548 66.2991 63 52.3195 63V89.3049H77.5893Z" fill="url(#paint1_linear_5_43)"/>
<defs>
<linearGradient id="paint0_linear_5_43" x1="17" y1="48" x2="157.176" y2="127.907" gradientUnits="userSpaceOnUse">
<stop stop-color="#5F91F9"/>
<stop offset="1" stop-color="#111E1D"/>
</linearGradient>
<linearGradient id="paint1_linear_5_43" x1="50.451" y1="92.926" x2="67.0459" y2="73.7773" gradientUnits="userSpaceOnUse">
<stop stop-color="#397BFF"/>
<stop offset="1" stop-color="#BA97FF"/>
</linearGradient>
</defs>
</svg>
