<svg width="160" height="160" viewBox="0 0 160 160" fill="none" xmlns="http://www.w3.org/2000/svg">
<path d="M143 48L143 123C143 125.209 141.209 127 139 127L21 127C18.7909 127 17 125.209 17 123L17 48L143 48Z" fill="url(#paint0_linear_4_969)"/>
<path d="M134.243 37.2929C134.633 36.9024 135.266 36.9024 135.657 37.2929L136.532 38.1679C136.922 38.5584 136.922 39.1916 136.532 39.5821L135.202 40.9124L136.532 42.2426C136.922 42.6332 136.922 43.2663 136.532 43.6569L135.657 44.5318C135.266 44.9223 134.633 44.9223 134.243 44.5318L132.912 43.2015L131.582 44.5318C131.192 44.9223 130.558 44.9223 130.168 44.5318L129.293 43.6569C128.902 43.2663 128.902 42.6332 129.293 42.2426L130.623 40.9124L129.293 39.5821C128.902 39.1916 128.902 38.5584 129.293 38.1679L130.168 37.2929C130.558 36.9024 131.192 36.9024 131.582 37.2929L132.912 38.6232L134.243 37.2929Z" fill="#090A0F"/>
<circle cx="27" cy="41" r="3" fill="#090A0F"/>
<circle cx="38" cy="41" r="3" fill="#090A0F"/>
<circle cx="49" cy="41" r="3" fill="#090A0F"/>
<path d="M17.75 37C17.75 35.2051 19.2051 33.75 21 33.75H139C140.795 33.75 142.25 35.2051 142.25 37V47.25H17.75V37Z" stroke="#090A0F" stroke-width="1.5"/>
<path d="M48.3213 113.701C62.306 113.701 73.6425 102.352 73.6425 88.3507C73.6425 74.3497 62.306 63 48.3213 63C34.3365 63 23 74.3497 23 88.3507C23 102.352 34.3365 113.701 48.3213 113.701Z" fill="#A97DFF"/>
<path d="M73.5893 89.3049C73.5893 88.9903 73.6408 88.6774 73.6408 88.3507C73.6408 74.3548 62.2991 63 48.3195 63V89.3049H73.5893Z" fill="url(#paint1_linear_4_969)"/>
<path d="M89 114L92.8886 106.245C93.5073 105.011 95.1601 104.76 96.1173 105.755L99.0356 108.786C99.8535 109.636 101.225 109.597 101.994 108.703L104.695 105.558C105.314 104.837 106.354 104.652 107.184 105.114L111.069 107.276C112.138 107.87 113.485 107.376 113.914 106.231L116.994 98.0237C117.591 96.4318 119.777 96.2641 120.61 97.7463L123.711 103.263C124.619 104.879 127.047 104.496 127.415 102.679L129 94.8451" stroke="#FF996C" stroke-width="1.5"/>
<path d="M129 93.7766L125.934 100.804C125.311 102.233 123.374 102.451 122.472 101.195L121.221 99.4515C120.43 98.349 118.784 98.3536 117.978 99.4605L116.442 101.57C115.783 102.475 114.517 102.674 113.626 102.013L111.721 100.598C110.629 99.7884 109.055 100.292 108.621 101.59L106.398 108.242C105.808 110.007 103.347 110.107 102.648 108.395L101.401 105.343C100.652 103.509 97.9662 103.794 97.5847 105.748L96.3019 112.32" stroke="#397BFF" stroke-width="1.5"/>
<rect x="-0.75" y="0.75" width="40.5" height="4.5" rx="2.25" transform="matrix(-1 0 0 1 129.5 63)" stroke="#090A0F" stroke-width="1.5"/>
<rect x="-0.75" y="0.75" width="23.5" height="4.5" rx="2.25" transform="matrix(-1 0 0 1 112.5 73)" stroke="#090A0F" stroke-width="1.5"/>
<defs>
<linearGradient id="paint0_linear_4_969" x1="17" y1="48" x2="157.176" y2="127.907" gradientUnits="userSpaceOnUse">
<stop stop-color="#B0CAFF"/>
<stop offset="1" stop-color="#D1FEF9"/>
</linearGradient>
<linearGradient id="paint1_linear_4_969" x1="46.451" y1="92.926" x2="63.0459" y2="73.7773" gradientUnits="userSpaceOnUse">
<stop stop-color="#397BFF"/>
<stop offset="1" stop-color="#A97DFF"/>
</linearGradient>
</defs>
</svg>
