<svg width="160" height="160" viewBox="0 0 160 160" fill="none" xmlns="http://www.w3.org/2000/svg">
<path fill-rule="evenodd" clip-rule="evenodd" d="M61.5 39.6213V113.5H123.5V26.5H74.6213L61.5 39.6213ZM60 39V115H125V25H74L60 39Z" fill="#090A0F"/>
<path d="M74 39V25L60 39H74Z" fill="#336FE6"/>
<path d="M132.347 118.819C130.776 120.92 128.834 122.751 126.602 124.201L135.501 133.615C137.034 135.157 139.523 135.164 141.065 133.632C142.607 132.099 142.614 129.61 141.081 128.067L132.347 118.819Z" fill="url(#paint0_linear_4_971)"/>
<path d="M127.982 125.595C127.982 125.595 130.607 122.955 131.151 120.368C131.151 120.368 129.398 122.565 126.603 124.201L127.985 125.595H127.982Z" fill="#090A0F"/>
<path d="M114.347 126.167C125.771 126.167 135.032 116.907 135.032 105.483C135.032 94.0589 125.771 84.7986 114.347 84.7986C102.924 84.7986 93.6631 94.0594 93.6631 105.483C93.6631 116.906 102.924 126.167 114.347 126.167Z" fill="#7FE3D9"/>
<g opacity="0.8">
<path d="M106.596 84.5297C105.523 84.9209 104.489 85.3918 103.501 85.9354L133.267 117.32C133.862 116.36 134.386 115.351 134.832 114.301L106.596 84.5297Z" fill="white"/>
<path d="M132.419 118.591L102.188 86.7168C97.7373 89.5771 94.3666 93.9742 92.8235 99.1593L119.516 127.303C124.796 126.027 129.345 122.875 132.419 118.591Z" fill="white"/>
</g>
<path fill-rule="evenodd" clip-rule="evenodd" d="M91.25 105.404C91.25 92.6162 101.616 82.25 114.404 82.25C127.191 82.25 137.557 92.6162 137.557 105.404C137.557 118.191 127.191 128.557 114.404 128.557C101.616 128.557 91.25 118.191 91.25 105.404ZM114.404 83.75C102.445 83.75 92.75 93.4447 92.75 105.404C92.75 117.362 102.445 127.057 114.404 127.057C126.362 127.057 136.057 117.362 136.057 105.404C136.057 93.4447 126.362 83.75 114.404 83.75Z" fill="#090A0F"/>
<path d="M17 58V134H82V44H31L17 58Z" fill="url(#paint1_linear_4_971)"/>
<path d="M31 58V44L17 58H31Z" fill="#336FE6"/>
<rect x="-0.75" y="0.75" width="40.5" height="4.5" rx="2.25" transform="matrix(-1 0 0 1 68.5 75)" stroke="#090A0F" stroke-width="1.5"/>
<rect x="-0.75" y="0.75" width="40.5" height="4.5" rx="2.25" transform="matrix(-1 0 0 1 68.5 86)" stroke="#090A0F" stroke-width="1.5"/>
<rect x="-0.75" y="0.75" width="30.5" height="4.5" rx="2.25" transform="matrix(-1 0 0 1 58.5 97)" stroke="#090A0F" stroke-width="1.5"/>
<defs>
<linearGradient id="paint0_linear_4_971" x1="142.977" y1="135.706" x2="130.205" y2="122.331" gradientUnits="userSpaceOnUse">
<stop stop-color="#397BFF"/>
<stop offset="1" stop-color="#A97DFF"/>
</linearGradient>
<linearGradient id="paint1_linear_4_971" x1="49.5" y1="44" x2="49.5" y2="134" gradientUnits="userSpaceOnUse">
<stop stop-color="#6195FF"/>
<stop offset="1" stop-color="#A97DFF"/>
</linearGradient>
</defs>
</svg>
