<svg width="160" height="160" viewBox="0 0 160 160" fill="none" xmlns="http://www.w3.org/2000/svg">
<path d="M124.25 114.25H60.75V39.3107L74.3107 25.75H124.25V114.25Z" stroke="#090A0F" stroke-width="1.5"/>
<path d="M74 39V25L60 39H74Z" fill="#336FE6"/>
<path d="M132.347 118.819C130.776 120.92 128.834 122.751 126.602 124.201L135.501 133.615C137.034 135.157 139.523 135.164 141.065 133.632C142.607 132.099 142.614 129.61 141.081 128.067L132.347 118.819Z" fill="url(#paint0_linear_4_971)"/>
<path d="M127.982 125.595C127.982 125.595 130.607 122.955 131.151 120.368C131.151 120.368 129.398 122.565 126.603 124.201L127.985 125.595H127.982Z" fill="#090A0F"/>
<path d="M114.347 126.167C125.771 126.167 135.032 116.907 135.032 105.483C135.032 94.0589 125.771 84.7986 114.347 84.7986C102.924 84.7986 93.6631 94.0594 93.6631 105.483C93.6631 116.906 102.924 126.167 114.347 126.167Z" fill="#7FE3D9"/>
<g opacity="0.8">
<path d="M106.596 84.5297C105.523 84.9209 104.489 85.3918 103.501 85.9354L133.267 117.32C133.862 116.36 134.386 115.351 134.832 114.301L106.596 84.5297Z" fill="white"/>
<path d="M132.419 118.591L102.188 86.7168C97.7373 89.5771 94.3666 93.9742 92.8235 99.1593L119.516 127.303C124.796 126.027 129.345 122.875 132.419 118.591Z" fill="white"/>
</g>
<path d="M114.404 127.807C126.777 127.807 136.807 117.777 136.807 105.404C136.807 93.0304 126.777 83 114.404 83C102.03 83 92 93.0304 92 105.404C92 117.777 102.03 127.807 114.404 127.807Z" stroke="#090A0F" stroke-width="1.5" stroke-miterlimit="10"/>
<path d="M17 58V134H82V44H31L17 58Z" fill="url(#paint1_linear_4_971)"/>
<path d="M31 58V44L17 58H31Z" fill="#336FE6"/>
<rect x="-0.75" y="0.75" width="40.5" height="4.5" rx="2.25" transform="matrix(-1 0 0 1 68.5 75)" stroke="#090A0F" stroke-width="1.5"/>
<rect x="-0.75" y="0.75" width="40.5" height="4.5" rx="2.25" transform="matrix(-1 0 0 1 68.5 86)" stroke="#090A0F" stroke-width="1.5"/>
<rect x="-0.75" y="0.75" width="30.5" height="4.5" rx="2.25" transform="matrix(-1 0 0 1 58.5 97)" stroke="#090A0F" stroke-width="1.5"/>
<defs>
<linearGradient id="paint0_linear_4_971" x1="142.977" y1="135.706" x2="130.205" y2="122.331" gradientUnits="userSpaceOnUse">
<stop stop-color="#397BFF"/>
<stop offset="1" stop-color="#A97DFF"/>
</linearGradient>
<linearGradient id="paint1_linear_4_971" x1="49.5" y1="44" x2="49.5" y2="134" gradientUnits="userSpaceOnUse">
<stop stop-color="#6195FF"/>
<stop offset="1" stop-color="#A97DFF"/>
</linearGradient>
</defs>
</svg>
