<svg width="160" height="160" viewBox="0 0 160 160" fill="none" xmlns="http://www.w3.org/2000/svg">
<path fill-rule="evenodd" clip-rule="evenodd" d="M121 107C120.963 107.987 120.652 108.903 120.141 109.674C119.755 110.256 119.256 110.755 118.674 111.141C117.903 111.652 116.987 111.963 116 112C116.987 112.037 117.903 112.348 118.674 112.859C119.256 113.245 119.755 113.744 120.141 114.326C120.652 115.097 120.963 116.013 121 117C121.037 116.013 121.348 115.097 121.859 114.326C122.245 113.744 122.744 113.245 123.326 112.859C124.097 112.348 125.013 112.037 126 112C125.013 111.963 124.097 111.652 123.326 111.141C122.744 110.755 122.245 110.256 121.859 109.674C121.348 108.903 121.037 107.987 121 107ZM121 111.034C120.712 111.388 120.388 111.712 120.034 112C120.388 112.288 120.712 112.612 121 112.966C121.288 112.612 121.612 112.288 121.966 112C121.612 111.712 121.288 111.388 121 111.034Z" fill="white"/>
<path fill-rule="evenodd" clip-rule="evenodd" d="M43.5 31C43.4566 32.151 43.1649 33.2376 42.6768 34.2079C41.9241 35.7043 40.7043 36.9241 39.2079 37.6768C38.2376 38.1649 37.151 38.4566 36 38.5C37.151 38.5433 38.2376 38.835 39.2079 39.3231C40.7043 40.0759 41.9241 41.2957 42.6768 42.7921C43.1649 43.7624 43.4566 44.849 43.5 46C43.5434 44.849 43.8351 43.7624 44.3232 42.7921C45.0759 41.2957 46.2957 40.0759 47.7921 39.3231C48.7624 38.835 49.849 38.5433 51 38.5C49.849 38.4566 48.7624 38.1649 47.7921 37.6768C46.2957 36.9241 45.0759 35.7043 44.3232 34.2079C43.8351 33.2376 43.5434 32.151 43.5 31ZM43.5 35.7809C42.7928 36.8654 41.8654 37.7928 40.7809 38.5C41.8654 39.2072 42.7928 40.1346 43.5 41.2191C44.2072 40.1346 45.1346 39.2072 46.2191 38.5C45.1346 37.7928 44.2072 36.8654 43.5 35.7809Z" fill="white"/>
<path fill-rule="evenodd" clip-rule="evenodd" d="M14 100C13.9602 101.056 13.6589 102.045 13.1587 102.903C12.615 103.836 11.8363 104.615 10.9034 105.159C10.0452 105.659 9.05649 105.96 8 106C9.05649 106.04 10.0452 106.341 10.9034 106.841C11.8363 107.385 12.615 108.164 13.1587 109.097C13.6589 109.955 13.9602 110.944 14 112C14.0398 110.944 14.3411 109.955 14.8413 109.097C15.385 108.164 16.1637 107.385 17.0966 106.841C17.9548 106.341 18.9435 106.04 20 106C18.9435 105.96 17.9548 105.659 17.0966 105.159C16.1637 104.615 15.385 103.836 14.8413 102.903C14.3411 102.045 14.0398 101.056 14 100ZM14 104.351C13.5366 104.98 12.9802 105.537 12.351 106C12.9802 106.463 13.5366 107.02 14 107.649C14.4634 107.02 15.0198 106.463 15.649 106C15.0198 105.537 14.4634 104.98 14 104.351Z" fill="white"/>
<path fill-rule="evenodd" clip-rule="evenodd" d="M142 46C141.951 47.2886 141.669 48.5167 141.195 49.6433C140.142 52.1426 138.143 54.1424 135.643 55.195C134.517 55.6695 133.289 55.9515 132 56C133.289 56.0485 134.517 56.3305 135.643 56.805C138.143 57.8576 140.142 59.8574 141.195 62.3567C141.669 63.4833 141.951 64.7114 142 66C142.049 64.7114 142.331 63.4833 142.805 62.3567C143.858 59.8574 145.857 57.8576 148.357 56.805C149.483 56.3305 150.711 56.0485 152 56C150.711 55.9515 149.483 55.6695 148.357 55.195C145.857 54.1424 143.858 52.1426 142.805 49.6433C142.331 48.5167 142.049 47.2886 142 46ZM142 51.4087C140.925 53.3318 139.332 54.9249 137.409 56C139.332 57.0751 140.925 58.6682 142 60.5913C143.075 58.6682 144.668 57.0751 146.591 56C144.668 54.9249 143.075 53.3318 142 51.4087Z" fill="white"/>
<path fill-rule="evenodd" clip-rule="evenodd" d="M52.2902 117.092C54.5213 116.354 56.1874 115.51 57.0765 114.621C61.1084 110.589 61.1462 104.172 57.2614 100.287C53.3766 96.4025 46.9593 96.4403 42.9275 100.472C42.0383 101.361 41.1942 103.027 40.457 105.258C39.7363 107.44 39.1784 109.967 38.7556 112.393C38.3339 114.813 38.0524 117.097 37.8765 118.778C37.8387 119.139 37.8058 119.471 37.7775 119.771C38.0772 119.743 38.4099 119.71 38.7707 119.672C40.4519 119.496 42.7358 119.215 45.1555 118.793C47.5817 118.37 50.1091 117.812 52.2902 117.092ZM37.6478 121.29C41.9806 120.893 54.3683 119.451 58.1372 115.682C62.7322 111.087 62.815 103.72 58.3221 99.2266C53.8291 94.7337 46.4619 94.8165 41.8668 99.4115C38.098 103.18 36.6557 115.568 36.2589 119.901C36.172 120.851 36.1352 121.413 36.1352 121.413C36.1352 121.413 36.698 121.377 37.6478 121.29Z" fill="white"/>
<circle cx="50.6802" cy="107.336" r="8" transform="rotate(45 50.6802 107.336)" fill="#FF996C"/>
<path d="M120.582 36.8407C96.4632 30.9926 63.7385 56.4937 55.2661 87.2534L70.3017 102.758C100.974 93.7365 126.43 60.9596 120.582 36.8407Z" fill="url(#paint0_linear_5_46)"/>
<path fill-rule="evenodd" clip-rule="evenodd" d="M40.2072 92.156C38.9642 92.9131 38.2278 93.4572 38.2278 93.4572C38.3052 92.6741 38.4152 91.8729 38.5573 91.0586C40.772 78.3647 50.7677 62.481 66.087 62.1874C66.7537 62.1746 67.4303 62.1913 68.1169 62.2391C68.1356 62.2404 68.1542 62.2418 68.1729 62.2431C68.2148 62.2461 68.2568 62.2493 68.2989 62.2525L68.2661 62.3161C67.833 62.8691 67.4068 63.4282 66.9877 63.9929C61.6892 71.1322 57.8821 79.063 55.5457 87.5141C49.7679 87.0069 43.272 90.2892 40.2072 92.156Z" fill="#397BFF"/>
<path fill-rule="evenodd" clip-rule="evenodd" d="M66.5165 119.115C65.7022 119.257 64.901 119.367 64.1179 119.444C64.1179 119.444 64.662 118.708 65.4191 117.465C67.2858 114.4 70.4475 108.256 69.9403 102.478C78.3913 100.141 86.4429 95.9828 93.5822 90.6844C94.1469 90.2653 94.7059 89.839 95.259 89.406L95.3226 89.3732C95.3258 89.4152 95.329 89.4572 95.332 89.4992C95.3333 89.5179 95.3347 89.5365 95.336 89.5552C95.3838 90.2417 95.4005 90.9184 95.3877 91.585C95.0941 106.904 79.2104 116.9 66.5165 119.115Z" fill="#397BFF"/>
<path d="M94.9538 70.7895C99.3938 70.7895 102.993 67.1902 102.993 62.7499C102.993 58.3096 99.3938 54.7103 94.9538 54.7103C90.5137 54.7103 86.9142 58.3098 86.9142 62.7499C86.9142 67.19 90.5137 70.7895 94.9538 70.7895Z" fill="#8DFCF1"/>
<g opacity="0.8">
<path d="M91.5711 53.1714C91.078 53.3481 90.6025 53.5607 90.1478 53.8062L103.836 67.9807C104.11 67.5469 104.351 67.0912 104.556 66.617L91.5711 53.1714Z" fill="white"/>
<path d="M103.446 68.5548L89.5442 54.1592C87.4976 55.451 85.9475 57.4369 85.2379 59.7786L97.5126 72.4892C99.9408 71.9129 102.033 70.4894 103.446 68.5548Z" fill="white"/>
</g>
<path fill-rule="evenodd" clip-rule="evenodd" d="M84.4879 62.8303C84.4879 57.0816 89.1481 52.4214 94.8968 52.4214C100.645 52.4214 105.306 57.0816 105.306 62.8303C105.306 68.5789 100.645 73.2392 94.8968 73.2392C89.1481 73.2392 84.4879 68.5789 84.4879 62.8303ZM94.8968 53.9214C89.9766 53.9214 85.9879 57.91 85.9879 62.8303C85.9879 67.7505 89.9766 71.7392 94.8968 71.7392C99.817 71.7392 103.806 67.7505 103.806 62.8303C103.806 57.91 99.817 53.9214 94.8968 53.9214Z" fill="white"/>
<path d="M84.9038 72.5636L82.2315 73.7125C70.069 79.8058 60.2205 89.7019 54.1859 101.894L53.2001 104.267L55.8723 103.118C68.0349 97.025 77.8833 87.1289 83.9179 74.9373L84.9038 72.5636Z" fill="#397BFF"/>
<defs>
<linearGradient id="paint0_linear_5_46" x1="119.581" y1="36" x2="62.7005" y2="95.3843" gradientUnits="userSpaceOnUse">
<stop stop-color="#A97DFF"/>
<stop offset="1" stop-color="#B0CAFF"/>
</linearGradient>
</defs>
</svg>
