<svg width="160" height="160" viewBox="0 0 160 160" fill="none" xmlns="http://www.w3.org/2000/svg">
<path fill-rule="evenodd" clip-rule="evenodd" d="M53.4397 116.842C55.6525 116.123 57.2971 115.295 58.1694 114.423C62.1343 110.458 62.1523 104.087 58.2578 100.192C54.3634 96.2979 47.9922 96.3159 44.0273 100.281C43.1549 101.153 42.3274 102.798 41.6078 105.011C40.9047 107.172 40.3652 109.68 39.9591 112.088C39.5541 114.49 39.2877 116.757 39.1226 118.427C39.0868 118.788 39.0559 119.121 39.0293 119.421C39.329 119.394 39.6619 119.363 40.0234 119.328C41.6929 119.163 43.9606 118.896 46.3623 118.491C48.7706 118.085 51.2779 117.545 53.4397 116.842ZM38.9088 120.937C43.2198 120.567 55.5089 119.205 59.2301 115.484C63.77 110.944 63.8095 103.623 59.3185 99.1317C54.8275 94.6407 47.5065 94.6803 42.9667 99.2201C39.2454 102.941 37.8833 115.23 37.5131 119.541C37.4316 120.49 37.3982 121.052 37.3982 121.052C37.3982 121.052 37.9605 121.019 38.9088 120.937Z" fill="#090A0F"/>
<circle cx="51.3137" cy="107.314" r="8" transform="rotate(45 51.3137 107.314)" fill="#FF996C"/>
<path d="M120.582 36.8407C96.4632 30.9926 63.7385 56.4937 55.2661 87.2534L70.3017 102.758C100.974 93.7365 126.43 60.9596 120.582 36.8407Z" fill="url(#paint0_linear_4_979)"/>
<path fill-rule="evenodd" clip-rule="evenodd" d="M40.2073 92.156C38.9643 92.9131 38.2279 93.4572 38.2279 93.4572C38.3053 92.6741 38.4153 91.8729 38.5574 91.0586C40.7721 78.3647 50.7678 62.481 66.0872 62.1874C66.7538 62.1746 67.4305 62.1913 68.117 62.2391C68.1357 62.2404 68.1543 62.2418 68.173 62.2431C68.215 62.2461 68.257 62.2493 68.299 62.2525L68.2662 62.3161C67.8332 62.8691 67.4069 63.4282 66.9878 63.9929C61.6894 71.1322 57.8822 79.063 55.5458 87.5141C49.768 87.0069 43.2721 90.2892 40.2073 92.156Z" fill="#6195FF"/>
<path fill-rule="evenodd" clip-rule="evenodd" d="M66.5166 119.115C65.7023 119.257 64.9011 119.367 64.118 119.444C64.118 119.444 64.6621 118.708 65.4192 117.465C67.286 114.4 70.4476 108.256 69.9404 102.478C78.3914 100.141 86.443 95.9828 93.5823 90.6844C94.147 90.2653 94.7061 89.839 95.2591 89.406L95.3227 89.3732C95.3259 89.4152 95.3291 89.4572 95.3321 89.4992C95.3335 89.5179 95.3348 89.5365 95.3361 89.5552C95.3839 90.2417 95.4006 90.9184 95.3878 91.585C95.0942 106.904 79.2105 116.9 66.5166 119.115Z" fill="#6195FF"/>
<path d="M94.9538 70.7895C99.3938 70.7895 102.993 67.1902 102.993 62.7499C102.993 58.3096 99.3938 54.7103 94.9538 54.7103C90.5137 54.7103 86.9142 58.3098 86.9142 62.7499C86.9142 67.19 90.5137 70.7895 94.9538 70.7895Z" fill="#8DFCF1"/>
<g opacity="0.8">
<path d="M91.5711 53.1714C91.078 53.3481 90.6025 53.5607 90.1478 53.8062L103.836 67.9807C104.11 67.5469 104.351 67.0912 104.556 66.617L91.5711 53.1714Z" fill="white"/>
<path d="M103.446 68.5548L89.5442 54.1592C87.4976 55.451 85.9475 57.4369 85.2379 59.7786L97.5126 72.4892C99.9408 71.9129 102.033 70.4894 103.446 68.5548Z" fill="white"/>
</g>
<path fill-rule="evenodd" clip-rule="evenodd" d="M84.4879 62.8303C84.4879 57.0816 89.1481 52.4214 94.8968 52.4214C100.645 52.4214 105.306 57.0816 105.306 62.8303C105.306 68.5789 100.645 73.2392 94.8968 73.2392C89.1481 73.2392 84.4879 68.5789 84.4879 62.8303ZM94.8968 53.9214C89.9766 53.9214 85.9879 57.91 85.9879 62.8303C85.9879 67.7505 89.9766 71.7392 94.8968 71.7392C99.817 71.7392 103.806 67.7505 103.806 62.8303C103.806 57.91 99.817 53.9214 94.8968 53.9214Z" fill="#090A0F"/>
<path d="M84.9038 72.5636L82.2315 73.7125C70.069 79.8058 60.2205 89.7019 54.1859 101.894L53.2001 104.267L55.8723 103.118C68.0349 97.025 77.8833 87.1289 83.9179 74.9373L84.9038 72.5636Z" fill="#6195FF"/>
<path fill-rule="evenodd" clip-rule="evenodd" d="M121 107C120.963 107.987 120.652 108.903 120.141 109.674C119.755 110.256 119.256 110.755 118.674 111.141C117.903 111.652 116.987 111.963 116 112C116.987 112.037 117.903 112.348 118.674 112.859C119.256 113.245 119.755 113.744 120.141 114.326C120.652 115.097 120.963 116.013 121 117C121.037 116.013 121.348 115.097 121.859 114.326C122.245 113.744 122.744 113.245 123.326 112.859C124.097 112.348 125.013 112.037 126 112C125.013 111.963 124.097 111.652 123.326 111.141C122.744 110.755 122.245 110.256 121.859 109.674C121.348 108.903 121.037 107.987 121 107ZM121 111.034C120.712 111.388 120.388 111.712 120.034 112C120.388 112.288 120.712 112.612 121 112.966C121.288 112.612 121.612 112.288 121.966 112C121.612 111.712 121.288 111.388 121 111.034Z" fill="#090A0F"/>
<path fill-rule="evenodd" clip-rule="evenodd" d="M43.5 31C43.4566 32.151 43.1649 33.2376 42.6768 34.2079C41.9241 35.7043 40.7043 36.9241 39.2079 37.6768C38.2376 38.1649 37.151 38.4566 36 38.5C37.151 38.5433 38.2376 38.835 39.2079 39.3231C40.7043 40.0759 41.9241 41.2957 42.6768 42.7921C43.1649 43.7624 43.4566 44.849 43.5 46C43.5434 44.849 43.8351 43.7624 44.3232 42.7921C45.0759 41.2957 46.2957 40.0759 47.7921 39.3231C48.7624 38.835 49.849 38.5433 51 38.5C49.849 38.4566 48.7624 38.1649 47.7921 37.6768C46.2957 36.9241 45.0759 35.7043 44.3232 34.2079C43.8351 33.2376 43.5434 32.151 43.5 31ZM43.5 35.7809C42.7928 36.8654 41.8654 37.7928 40.7809 38.5C41.8654 39.2072 42.7928 40.1346 43.5 41.2191C44.2072 40.1346 45.1346 39.2072 46.2191 38.5C45.1346 37.7928 44.2072 36.8654 43.5 35.7809Z" fill="#090A0F"/>
<path fill-rule="evenodd" clip-rule="evenodd" d="M14 100C13.9602 101.056 13.6589 102.045 13.1587 102.903C12.615 103.836 11.8363 104.615 10.9034 105.159C10.0452 105.659 9.05649 105.96 8 106C9.05649 106.04 10.0452 106.341 10.9034 106.841C11.8363 107.385 12.615 108.164 13.1587 109.097C13.6589 109.955 13.9602 110.944 14 112C14.0398 110.944 14.3411 109.955 14.8413 109.097C15.385 108.164 16.1637 107.385 17.0966 106.841C17.9548 106.341 18.9435 106.04 20 106C18.9435 105.96 17.9548 105.659 17.0966 105.159C16.1637 104.615 15.385 103.836 14.8413 102.903C14.3411 102.045 14.0398 101.056 14 100ZM14 104.351C13.5366 104.98 12.9802 105.537 12.351 106C12.9802 106.463 13.5366 107.02 14 107.649C14.4634 107.02 15.0198 106.463 15.649 106C15.0198 105.537 14.4634 104.98 14 104.351Z" fill="#090A0F"/>
<path fill-rule="evenodd" clip-rule="evenodd" d="M142 46C141.951 47.2886 141.669 48.5167 141.195 49.6433C140.142 52.1426 138.143 54.1424 135.643 55.195C134.517 55.6695 133.289 55.9515 132 56C133.289 56.0485 134.517 56.3305 135.643 56.805C138.143 57.8576 140.142 59.8574 141.195 62.3567C141.669 63.4833 141.951 64.7114 142 66C142.049 64.7114 142.331 63.4833 142.805 62.3567C143.858 59.8574 145.857 57.8576 148.357 56.805C149.483 56.3305 150.711 56.0485 152 56C150.711 55.9515 149.483 55.6695 148.357 55.195C145.857 54.1424 143.858 52.1426 142.805 49.6433C142.331 48.5167 142.049 47.2886 142 46ZM142 51.4087C140.925 53.3318 139.332 54.9249 137.409 56C139.332 57.0751 140.925 58.6682 142 60.5913C143.075 58.6682 144.668 57.0751 146.591 56C144.668 54.9249 143.075 53.3318 142 51.4087Z" fill="#090A0F"/>
<defs>
<linearGradient id="paint0_linear_4_979" x1="119.581" y1="36" x2="62.7005" y2="95.3843" gradientUnits="userSpaceOnUse">
<stop stop-color="#B999FE"/>
<stop offset="1" stop-color="#B0C8FE"/>
</linearGradient>
</defs>
</svg>
