<svg width="160" height="160" viewBox="0 0 160 160" fill="none" xmlns="http://www.w3.org/2000/svg">
<path d="M58.6998 114.953C57.6961 115.957 55.9078 116.828 53.6717 117.556C51.461 118.275 48.9138 118.821 46.487 119.231C44.0635 119.639 41.778 119.908 40.0972 120.074C39.3228 120.151 38.6777 120.205 38.208 120.242C38.2448 119.772 38.2996 119.127 38.3762 118.353C38.5425 116.672 38.8109 114.387 39.2195 111.963C39.6287 109.536 40.1756 106.989 40.8946 104.779C41.6218 102.542 42.4933 100.754 43.497 99.7504C47.7494 95.4981 54.5954 95.4693 58.7882 99.6621C62.9809 103.855 62.9521 110.701 58.6998 114.953Z" stroke="#090A0F" stroke-width="1.5"/>
<circle cx="51.3137" cy="107.314" r="8" transform="rotate(45 51.3137 107.314)" fill="#FF996C"/>
<path d="M120.582 36.8407C96.4632 30.9926 63.7385 56.4937 55.2661 87.2534L70.3017 102.758C100.974 93.7365 126.43 60.9596 120.582 36.8407Z" fill="url(#paint0_linear_4_979)"/>
<path fill-rule="evenodd" clip-rule="evenodd" d="M40.2073 92.156C38.9643 92.9131 38.2279 93.4572 38.2279 93.4572C38.3053 92.6741 38.4153 91.8729 38.5574 91.0586C40.7721 78.3647 50.7678 62.481 66.0872 62.1874C66.7538 62.1746 67.4305 62.1913 68.117 62.2391C68.1357 62.2404 68.1543 62.2418 68.173 62.2431C68.215 62.2461 68.257 62.2493 68.299 62.2525L68.2662 62.3161C67.8332 62.8691 67.4069 63.4282 66.9878 63.9929C61.6894 71.1322 57.8822 79.063 55.5458 87.5141C49.768 87.0069 43.2721 90.2892 40.2073 92.156Z" fill="#6195FF"/>
<path fill-rule="evenodd" clip-rule="evenodd" d="M66.5166 119.115C65.7023 119.257 64.9011 119.367 64.118 119.444C64.118 119.444 64.6621 118.708 65.4192 117.465C67.286 114.4 70.4476 108.256 69.9404 102.478C78.3914 100.141 86.443 95.9828 93.5823 90.6844C94.147 90.2653 94.7061 89.839 95.2591 89.406L95.3227 89.3732C95.3259 89.4152 95.3291 89.4572 95.3321 89.4992C95.3335 89.5179 95.3348 89.5365 95.3361 89.5552C95.3839 90.2417 95.4006 90.9184 95.3878 91.585C95.0942 106.904 79.2105 116.9 66.5166 119.115Z" fill="#6195FF"/>
<path d="M94.9538 70.7895C99.3938 70.7895 102.993 67.1902 102.993 62.7499C102.993 58.3096 99.3938 54.7103 94.9538 54.7103C90.5137 54.7103 86.9142 58.3098 86.9142 62.7499C86.9142 67.19 90.5137 70.7895 94.9538 70.7895Z" fill="#8DFCF1"/>
<g opacity="0.8">
<path d="M91.5711 53.1714C91.078 53.3481 90.6025 53.5607 90.1478 53.8062L103.836 67.9807C104.11 67.5469 104.351 67.0912 104.556 66.617L91.5711 53.1714Z" fill="white"/>
<path d="M103.446 68.5548L89.5442 54.1592C87.4976 55.451 85.9475 57.4369 85.2379 59.7786L97.5126 72.4892C99.9408 71.9129 102.033 70.4894 103.446 68.5548Z" fill="white"/>
</g>
<path d="M94.8968 72.4892C100.231 72.4892 104.556 68.1647 104.556 62.8303C104.556 57.4958 100.231 53.1714 94.8968 53.1714C89.5624 53.1714 85.2379 57.4958 85.2379 62.8303C85.2379 68.1647 89.5624 72.4892 94.8968 72.4892Z" stroke="#090A0F" stroke-width="1.5" stroke-miterlimit="10"/>
<path d="M84.9038 72.5636L82.2315 73.7125C70.069 79.8058 60.2205 89.7019 54.1859 101.894L53.2001 104.267L55.8723 103.118C68.0349 97.025 77.8833 87.1289 83.9179 74.9373L84.9038 72.5636Z" fill="#6195FF"/>
<path d="M118.704 112C119.666 111.462 120.462 110.666 121 109.704C121.538 110.666 122.334 111.462 123.296 112C122.334 112.538 121.538 113.334 121 114.296C120.462 113.334 119.666 112.538 118.704 112Z" stroke="#090A0F" stroke-width="1.5"/>
<path d="M39.2243 38.5C41.1188 37.6441 42.6441 36.1188 43.5 34.2243C44.3559 36.1188 45.8812 37.6441 47.7757 38.5C45.8812 39.3559 44.3559 40.8812 43.5 42.7757C42.6441 40.8812 41.1188 39.3559 39.2243 38.5Z" stroke="#090A0F" stroke-width="1.5"/>
<path d="M10.9264 106C12.249 105.328 13.3285 104.249 14 102.926C14.6715 104.249 15.751 105.328 17.0736 106C15.751 106.672 14.6715 107.751 14 109.074C13.3285 107.751 12.249 106.672 10.9264 106Z" stroke="#090A0F" stroke-width="1.5"/>
<path d="M135.654 56C138.558 54.8692 140.869 52.5582 142 49.654C143.131 52.5582 145.442 54.8692 148.346 56C145.442 57.1308 143.131 59.4418 142 62.3461C140.869 59.4418 138.558 57.1308 135.654 56Z" stroke="#090A0F" stroke-width="1.5"/>
<defs>
<linearGradient id="paint0_linear_4_979" x1="119.581" y1="36" x2="62.7005" y2="95.3843" gradientUnits="userSpaceOnUse">
<stop stop-color="#B999FE"/>
<stop offset="1" stop-color="#B0C8FE"/>
</linearGradient>
</defs>
</svg>
