<svg width="160" height="160" viewBox="0 0 160 160" fill="none" xmlns="http://www.w3.org/2000/svg">
<path fill-rule="evenodd" clip-rule="evenodd" d="M76.605 92.6451L77.3377 97H82.6241L83.373 92.6511C84.495 92.3527 85.5578 91.9091 86.5399 91.3414L90.1383 93.9034L93.8764 90.1653L91.33 86.5596C91.8993 85.5783 92.3448 84.5164 92.6451 83.3951L97 82.6624V77.3759L92.6511 76.6271C92.366 75.5552 91.9484 74.5374 91.4168 73.5923L94.0141 70.0255L90.3275 66.2365L86.6838 68.743C85.6607 68.1342 84.5475 67.6609 83.3691 67.3479L82.6241 63H77.3377L76.5934 67.358C75.4749 67.6586 74.4157 68.1037 73.4369 68.672L69.8347 66.1236L66.0966 69.8617L68.6526 73.4705C68.0872 74.451 67.6452 75.5115 67.3479 76.631L63 77.3759V82.6624L67.358 83.4067C67.6404 84.4573 68.0503 85.4557 68.5701 86.3842L65.9592 89.947L69.6458 93.736L73.2861 91.2391C74.31 91.852 75.4246 92.329 76.605 92.6451ZM69.8396 91.7841L73.231 89.4579L74.0565 89.9521C74.963 90.4947 75.9491 90.9167 76.993 91.1962L77.9243 91.4455L78.6064 95.5H81.3603L82.0579 91.4486L82.9874 91.2014C83.9798 90.9375 84.92 90.5452 85.7894 90.0427L86.6243 89.5602L89.9747 91.9456L91.9221 89.9983L89.5497 86.6391L90.0325 85.8069C90.5365 84.9382 90.9306 83.9986 91.1962 83.007L91.4456 82.0758L95.5 81.3937V78.6397L91.4486 77.9421L91.2014 77.0126C90.9494 76.0646 90.58 75.1642 90.1094 74.3277L89.6371 73.488L92.0569 70.165L90.1349 68.1896L86.7424 70.5233L85.9168 70.032C85.0111 69.4931 84.0262 69.0744 82.984 68.7977L82.0532 68.5505L81.3593 64.5H78.6032L77.9103 68.5573L76.9827 68.8066C75.9937 69.0724 75.0565 69.4661 74.19 69.9692L73.3569 70.4529L70.001 68.0787L68.0522 70.0275L70.4319 73.3875L69.952 74.2197C69.4515 75.0877 69.0606 76.026 68.7977 77.016L68.5504 77.9468L64.5 78.6408V81.3969L68.5572 82.0898L68.8066 83.0173C69.0564 83.9464 69.4189 84.8297 69.879 85.6515L70.35 86.493L67.9191 89.8103L69.8396 91.7841Z" fill="white"/>
<path fill-rule="evenodd" clip-rule="evenodd" d="M73.9537 79.9264C73.9537 76.5451 76.6947 73.8041 80.076 73.8041C83.4572 73.8041 86.1983 76.5451 86.1983 79.9264C86.1983 83.3076 83.4572 86.0487 80.076 86.0487C76.6947 86.0487 73.9537 83.3076 73.9537 79.9264ZM80.076 75.3041C77.5231 75.3041 75.4537 77.3735 75.4537 79.9264C75.4537 82.4792 77.5231 84.5487 80.076 84.5487C82.6288 84.5487 84.6983 82.4792 84.6983 79.9264C84.6983 77.3735 82.6288 75.3041 80.076 75.3041Z" fill="white"/>
<path fill-rule="evenodd" clip-rule="evenodd" d="M62.5309 131.111C90.7506 140.759 121.448 125.703 131.096 97.4838C140.744 69.2641 125.689 38.5663 97.4691 28.9184C69.2494 19.2705 38.5516 34.3259 28.9037 62.5456C19.2558 90.7653 34.3112 121.463 62.5309 131.111ZM70.942 106.509C85.5744 111.512 101.492 103.705 106.494 89.0727C111.497 74.4403 103.69 58.5229 89.058 53.5203C74.4256 48.5177 58.5082 56.3242 53.5056 70.9567C48.503 85.5891 56.3095 101.506 70.942 106.509Z" fill="url(#paint0_linear_5_42)"/>
<path d="M98.5984 48.8065C104.72 41.5125 103.085 30.2841 93.8846 27.8277C92.3429 27.416 90.783 27.0721 89.211 26.798C63.4936 22.3142 37.616 37.0625 28.9037 62.5456C22.1461 82.3113 27.5076 103.293 41.0232 117.405L57.9341 97.2563C52.3162 90.0528 50.3299 80.2457 53.5056 70.9567C57.119 60.3877 66.4268 53.3799 76.8316 52.1879C79.4215 51.8912 82.0793 51.9549 84.7342 52.4136C85.0123 52.4616 85.2897 52.5139 85.5662 52.5703C90.1887 53.5136 95.3223 52.7098 98.3553 49.0962L98.5984 48.8065Z" fill="url(#paint1_linear_5_42)"/>
<defs>
<linearGradient id="paint0_linear_5_42" x1="94.5" y1="39.0146" x2="55" y2="102.015" gradientUnits="userSpaceOnUse">
<stop stop-color="#090A0F"/>
<stop offset="1" stop-color="#B0CAFF"/>
</linearGradient>
<linearGradient id="paint1_linear_5_42" x1="86.5" y1="32.0147" x2="50" y2="102.015" gradientUnits="userSpaceOnUse">
<stop stop-color="#397BFF"/>
<stop offset="1" stop-color="#B0CAFF"/>
</linearGradient>
</defs>
</svg>
