<svg width="160" height="160" viewBox="0 0 160 160" fill="none" xmlns="http://www.w3.org/2000/svg">
<mask id="path-1-inside-1_4_974" fill="white">
<path d="M82.6241 97H77.3377L76.605 92.6451C75.4246 92.329 74.31 91.852 73.2861 91.2391L69.6458 93.736L65.9592 89.947L68.5701 86.3842C68.0503 85.4557 67.6404 84.4573 67.358 83.4067L63 82.6624V77.3759L67.3479 76.631C67.6452 75.5115 68.0872 74.451 68.6526 73.4705L66.0966 69.8617L69.8347 66.1236L73.4369 68.672C74.4157 68.1037 75.4749 67.6586 76.5934 67.358L77.3377 63H82.6241L83.3691 67.3479C84.5475 67.6609 85.6607 68.1342 86.6838 68.743L90.3275 66.2365L94.0141 70.0255L91.4168 73.5923C91.9484 74.5374 92.366 75.5552 92.6511 76.6271L97 77.3759V82.6624L92.6451 83.3951C92.3448 84.5164 91.8993 85.5783 91.33 86.5596L93.8764 90.1653L90.1383 93.9034L86.5399 91.3414C85.5578 91.9091 84.495 92.3527 83.373 92.6511L82.6241 97Z"/>
</mask>
<path d="M77.3377 97L75.8585 97.2489L76.0689 98.5H77.3377V97ZM82.6241 97V98.5H83.8879L84.1024 97.2545L82.6241 97ZM76.605 92.6451L78.0842 92.3963L77.9243 91.4455L76.993 91.1962L76.605 92.6451ZM73.2861 91.2391L74.0565 89.9521L73.231 89.4579L72.4376 90.0021L73.2861 91.2391ZM69.6458 93.736L68.5708 94.782L69.4521 95.6878L70.4943 94.973L69.6458 93.736ZM65.9592 89.947L64.7493 89.0604L63.9994 90.0838L64.8841 90.9931L65.9592 89.947ZM68.5701 86.3842L69.78 87.2709L70.35 86.493L69.879 85.6515L68.5701 86.3842ZM67.358 83.4067L68.8066 83.0173L68.5572 82.0898L67.6105 81.9281L67.358 83.4067ZM63 82.6624H61.5V83.9279L62.7475 84.141L63 82.6624ZM63 77.3759L62.7467 75.8975L61.5 76.1111V77.3759H63ZM67.3479 76.631L67.6012 78.1094L68.5504 77.9468L68.7977 77.016L67.3479 76.631ZM68.6526 73.4705L69.952 74.2197L70.4319 73.3875L69.8766 72.6035L68.6526 73.4705ZM66.0966 69.8617L65.036 68.801L64.1411 69.6959L64.8726 70.7287L66.0966 69.8617ZM69.8347 66.1236L70.701 64.8991L69.6684 64.1686L68.7741 65.0629L69.8347 66.1236ZM73.4369 68.672L72.5706 69.8965L73.3569 70.4529L74.19 69.9692L73.4369 68.672ZM76.5934 67.358L76.9827 68.8066L77.9103 68.5573L78.072 67.6105L76.5934 67.358ZM77.3377 63V61.5H76.0721L75.8591 62.7475L77.3377 63ZM82.6241 63L84.1026 62.7467L83.889 61.5H82.6241V63ZM83.3691 67.3479L81.8906 67.6012L82.0532 68.5505L82.984 68.7977L83.3691 67.3479ZM86.6838 68.743L85.9168 70.032L86.7424 70.5233L87.534 69.9788L86.6838 68.743ZM90.3275 66.2365L91.4025 65.1905L90.52 64.2835L89.4773 65.0007L90.3275 66.2365ZM94.0141 70.0255L95.2267 70.9085L95.9712 69.886L95.0891 68.9794L94.0141 70.0255ZM91.4168 73.5923L90.2042 72.7093L89.6371 73.488L90.1094 74.3277L91.4168 73.5923ZM92.6511 76.6271L91.2014 77.0126L91.4486 77.9421L92.3965 78.1053L92.6511 76.6271ZM97 77.3759H98.5V76.1121L97.2545 75.8977L97 77.3759ZM97 82.6624L97.2489 84.1416L98.5 83.9311V82.6624H97ZM92.6451 83.3951L92.3962 81.9159L91.4456 82.0758L91.1962 83.007L92.6451 83.3951ZM91.33 86.5596L90.0325 85.8069L89.5497 86.6391L90.1047 87.4249L91.33 86.5596ZM93.8764 90.1653L94.937 91.2259L95.8307 90.3323L95.1016 89.3L93.8764 90.1653ZM90.1383 93.9034L89.2683 95.1253L90.3018 95.8611L91.1989 94.964L90.1383 93.9034ZM86.5399 91.3414L87.4099 90.1195L86.6243 89.5602L85.7894 90.0427L86.5399 91.3414ZM83.373 92.6511L82.9874 91.2014L82.0579 91.4486L81.8947 92.3965L83.373 92.6511ZM77.3377 98.5H82.6241V95.5H77.3377V98.5ZM75.1258 92.894L75.8585 97.2489L78.8169 96.7511L78.0842 92.3963L75.1258 92.894ZM76.993 91.1962C75.9491 90.9167 74.963 90.4947 74.0565 89.9521L72.5156 92.5261C73.657 93.2093 74.9001 93.7414 76.2171 94.0941L76.993 91.1962ZM70.4943 94.973L74.1345 92.4761L72.4376 90.0021L68.7974 92.499L70.4943 94.973ZM64.8841 90.9931L68.5708 94.782L70.7209 92.6899L67.0343 88.901L64.8841 90.9931ZM67.3602 85.4976L64.7493 89.0604L67.1691 90.8337L69.78 87.2709L67.3602 85.4976ZM69.879 85.6515C69.4189 84.8297 69.0564 83.9464 68.8066 83.0173L65.9094 83.7961C66.2245 84.9682 66.6817 86.0817 67.2612 87.1169L69.879 85.6515ZM62.7475 84.141L67.1055 84.8853L67.6105 81.9281L63.2525 81.1838L62.7475 84.141ZM61.5 77.3759V82.6624H64.5V77.3759H61.5ZM67.0946 75.1525L62.7467 75.8975L63.2533 78.8544L67.6012 78.1094L67.0946 75.1525ZM68.7977 77.016C69.0606 76.026 69.4515 75.0877 69.952 74.2197L67.3531 72.7212C66.7229 73.8142 66.2299 74.997 65.8982 76.2459L68.7977 77.016ZM64.8726 70.7287L67.4285 74.3374L69.8766 72.6035L67.3207 68.9947L64.8726 70.7287ZM68.7741 65.0629L65.036 68.801L67.1573 70.9224L70.8954 67.1843L68.7741 65.0629ZM74.3032 67.4474L70.701 64.8991L68.9684 67.3482L72.5706 69.8965L74.3032 67.4474ZM74.19 69.9692C75.0565 69.4661 75.9937 69.0724 76.9827 68.8066L76.2041 65.9094C74.9562 66.2447 73.7748 66.7413 72.6837 67.3748L74.19 69.9692ZM75.8591 62.7475L75.1148 67.1055L78.072 67.6105L78.8163 63.2525L75.8591 62.7475ZM82.6241 61.5H77.3377V64.5H82.6241V61.5ZM84.8475 67.0946L84.1026 62.7467L81.1457 63.2533L81.8906 67.6012L84.8475 67.0946ZM82.984 68.7977C84.0262 69.0744 85.0111 69.4931 85.9168 70.032L87.4509 67.4539C86.3104 66.7753 85.0689 66.2473 83.7541 65.8982L82.984 68.7977ZM89.4773 65.0007L85.8337 67.5071L87.534 69.9788L91.1776 67.4724L89.4773 65.0007ZM95.0891 68.9794L91.4025 65.1905L89.2524 67.2826L92.939 71.0715L95.0891 68.9794ZM92.6294 74.4753L95.2267 70.9085L92.8015 69.1425L90.2042 72.7093L92.6294 74.4753ZM90.1094 74.3277C90.58 75.1642 90.9494 76.0646 91.2014 77.0126L94.1007 76.2416C93.7827 75.0458 93.3168 73.9106 92.7242 72.8569L90.1094 74.3277ZM97.2545 75.8977L92.9056 75.1489L92.3965 78.1053L96.7455 78.8542L97.2545 75.8977ZM98.5 82.6624V77.3759H95.5V82.6624H98.5ZM92.894 84.8743L97.2489 84.1416L96.7511 81.1832L92.3962 81.9159L92.894 84.8743ZM91.1962 83.007C90.9306 83.9986 90.5365 84.9382 90.0325 85.8069L92.6274 87.3124C93.262 86.2185 93.759 85.0342 94.094 83.7832L91.1962 83.007ZM95.1016 89.3L92.5552 85.6943L90.1047 87.4249L92.6511 91.0306L95.1016 89.3ZM91.1989 94.964L94.937 91.2259L92.8157 89.1046L89.0776 92.8427L91.1989 94.964ZM85.6699 92.5634L89.2683 95.1253L91.0083 92.6814L87.4099 90.1195L85.6699 92.5634ZM85.7894 90.0427C84.92 90.5452 83.9798 90.9375 82.9874 91.2014L83.7585 94.1007C85.0102 93.7678 86.1955 93.273 87.2905 92.6402L85.7894 90.0427ZM84.1024 97.2545L84.8512 92.9056L81.8947 92.3965L81.1459 96.7455L84.1024 97.2545Z" fill="#090A0F" mask="url(#path-1-inside-1_4_974)"/>
<path fill-rule="evenodd" clip-rule="evenodd" d="M73.9537 79.9264C73.9537 76.5451 76.6947 73.8041 80.076 73.8041C83.4572 73.8041 86.1983 76.5451 86.1983 79.9264C86.1983 83.3076 83.4572 86.0487 80.076 86.0487C76.6947 86.0487 73.9537 83.3076 73.9537 79.9264ZM80.076 75.3041C77.5231 75.3041 75.4537 77.3735 75.4537 79.9264C75.4537 82.4792 77.5231 84.5487 80.076 84.5487C82.6288 84.5487 84.6983 82.4792 84.6983 79.9264C84.6983 77.3735 82.6288 75.3041 80.076 75.3041Z" fill="#090A0F"/>
<path fill-rule="evenodd" clip-rule="evenodd" d="M62.5456 131.111C90.7653 140.759 121.463 125.703 131.111 97.4838C140.759 69.2641 125.703 38.5663 97.4838 28.9184C69.2641 19.2705 38.5663 34.3259 28.9184 62.5456C19.2705 90.7653 34.3259 121.463 62.5456 131.111ZM70.9567 106.509C85.5891 111.512 101.506 103.705 106.509 89.0727C111.512 74.4403 103.705 58.5229 89.0727 53.5203C74.4403 48.5177 58.5229 56.3242 53.5203 70.9567C48.5177 85.5891 56.3242 101.506 70.9567 106.509Z" fill="url(#paint0_linear_4_974)"/>
<path d="M98.6131 48.8065C104.735 41.5125 103.1 30.2841 93.8994 27.8277C92.3576 27.416 90.7977 27.0721 89.2257 26.798C63.5083 22.3142 37.6307 37.0625 28.9184 62.5456C22.1608 82.3113 27.5223 103.293 41.0379 117.405L57.9488 97.2563C52.3309 90.0528 50.3446 80.2457 53.5203 70.9567C57.1337 60.3877 66.4415 53.3799 76.8463 52.1879C79.4362 51.8912 82.094 51.9549 84.7489 52.4136C85.027 52.4616 85.3044 52.5139 85.5809 52.5703C90.2034 53.5136 95.337 52.7098 98.37 49.0962L98.6131 48.8065Z" fill="url(#paint1_linear_4_974)"/>
<defs>
<linearGradient id="paint0_linear_4_974" x1="94.5147" y1="39.0146" x2="55.0147" y2="102.015" gradientUnits="userSpaceOnUse">
<stop stop-color="white"/>
<stop offset="1" stop-color="#B0CAFF"/>
</linearGradient>
<linearGradient id="paint1_linear_4_974" x1="86.5147" y1="32.0147" x2="50.0147" y2="102.015" gradientUnits="userSpaceOnUse">
<stop stop-color="#397BFF"/>
<stop offset="1" stop-color="#B0CAFF"/>
</linearGradient>
</defs>
</svg>
