<svg width="160" height="160" viewBox="0 0 160 160" fill="none" xmlns="http://www.w3.org/2000/svg">
<path d="M68.8989 67.1335C68.8989 66.3331 69.5493 65.6842 70.3516 65.6842H142.547C143.35 65.6842 144 66.3331 144 67.1335V111.191C144 119.196 137.496 125.684 129.474 125.684H83.4252C75.4026 125.684 68.8989 119.196 68.8989 111.191V67.1335Z" fill="url(#paint0_linear_5_41)"/>
<path d="M53.0653 67.1335C53.0653 66.3331 53.7157 65.6842 54.5179 65.6842H126.714C127.516 65.6842 128.166 66.3331 128.166 67.1335V111.191C128.166 119.196 121.663 125.684 113.64 125.684H67.5916C59.569 125.684 53.0653 119.196 53.0653 111.191V67.1335Z" fill="url(#paint1_linear_5_41)"/>
<path d="M94.1935 98.9674C97.5877 97.7121 100 94.5143 100 90.7677C100 85.9254 95.9706 82 91 82C86.0294 82 82 85.9254 82 90.7677C82 94.4066 84.2756 97.5278 87.5161 98.8543V110H94.1935V98.9674Z" fill="#090A0F"/>
<path fill-rule="evenodd" clip-rule="evenodd" d="M90.0556 110H87.2778V98.8543C84.1773 97.5278 82 94.4066 82 90.7677C82 85.9254 85.8553 82 90.6111 82C91.084 82 91.5479 82.0388 92 82.1134C87.9046 82.7896 84.7778 86.4069 84.7778 90.7677C84.7778 94.4066 86.9551 97.5278 90.0556 98.8543V110Z" fill="#FF996C"/>
<path fill-rule="evenodd" clip-rule="evenodd" d="M32.5509 92.1474L33 87.4999L34 90.8172L39.1732 90.8172L34.5994 71.7309C41.739 68.5688 45.8298 60.6692 43.945 52.804C41.8214 43.9423 32.9159 38.4799 24.0541 40.6036C15.1923 42.7272 7.37639 50.196 9.50003 59.0578C11.3231 66.6655 17.9898 73.5518 25.4908 73.4999L27.5 92.1474L31.5 92.1474L32.5509 92.1474ZM30.3079 66.6999C24.7571 68.03 19.1789 64.6086 17.8487 59.0578C16.5185 53.507 19.94 47.9288 25.4908 46.5986C31.0416 45.2685 36.6197 48.6899 37.9499 54.2407C39.2801 59.7915 35.8587 65.3697 30.3079 66.6999Z" fill="#ED7C4A"/>
<path d="M30.5 96.375H35.375L38.7265 100.732L38.7236 107.994L48.0937 108L48.0896 114.506L38.7194 114.5L38.7112 118.994L48.0114 119L48.0073 125.989L30.5 125.973L30.5 96.375Z" fill="#ED7C4A"/>
<path fill-rule="evenodd" clip-rule="evenodd" d="M27.5792 92.1641L29.8966 87.3646L34.1732 90.8173L29.5994 71.7309C36.7389 68.5689 40.8298 60.6693 38.945 52.8041C36.8214 43.9423 27.9159 38.48 19.0541 40.6036C10.1923 42.7273 4.72996 51.6327 6.8536 60.4945C8.67672 68.1022 15.498 73.2046 22.999 73.1527L27.5509 92.1475L27.5792 92.1641ZM25.3078 66.6999C19.757 68.0301 14.1789 64.6086 12.8487 59.0578C11.5185 53.507 14.94 47.9289 20.4908 46.5987C26.0416 45.2685 31.6197 48.69 32.9499 54.2408C34.2801 59.7916 30.8586 65.3697 25.3078 66.6999Z" fill="url(#paint2_linear_5_41)"/>
<path d="M27 100.268L30.375 96.1431L33.7265 100.5L33.7236 108.005L43.0937 108.011L43.0895 114.518L33.7194 114.511L33.7112 118.994L43.0114 119L43.0073 126L28.481 125.99L28.481 125.985L26.957 125.984L27 100.268Z" fill="url(#paint3_linear_5_41)"/>
<path fill-rule="evenodd" clip-rule="evenodd" d="M157 127.25H7V125.75H157V127.25Z" fill="white"/>
<path fill-rule="evenodd" clip-rule="evenodd" d="M86.9111 41.25C80.4528 41.25 75.2173 46.5063 75.2173 52.9904V66H67V52.9904C67 41.95 75.9145 33 86.9111 33H111.089C122.085 33 131 41.95 131 52.9904V66H122.783V52.9904C122.783 46.5064 117.547 41.25 111.089 41.25H86.9111Z" fill="#397BFF"/>
<path fill-rule="evenodd" clip-rule="evenodd" d="M8.78847 87.3077L20.7885 92.3077L20.2115 93.6924L8.21155 88.6924L8.78847 87.3077Z" fill="white"/>
<path fill-rule="evenodd" clip-rule="evenodd" d="M8.78847 103.692L20.7885 98.6923L20.2115 97.3076L8.21155 102.308L8.78847 103.692Z" fill="white"/>
<defs>
<linearGradient id="paint0_linear_5_41" x1="106.449" y1="65.6842" x2="106.449" y2="125.684" gradientUnits="userSpaceOnUse">
<stop stop-color="#397BFF"/>
<stop offset="1" stop-color="#A97DFF"/>
</linearGradient>
<linearGradient id="paint1_linear_5_41" x1="59.5" y1="66" x2="123" y2="126" gradientUnits="userSpaceOnUse">
<stop stop-color="#FF996C"/>
<stop offset="1" stop-color="#FFF6B6"/>
</linearGradient>
<linearGradient id="paint2_linear_5_41" x1="19.043" y1="40.6063" x2="31.2794" y2="91.5129" gradientUnits="userSpaceOnUse">
<stop stop-color="#FFF6B6"/>
<stop offset="1" stop-color="#FF996C"/>
</linearGradient>
<linearGradient id="paint3_linear_5_41" x1="30" y1="97.375" x2="38.7892" y2="126.688" gradientUnits="userSpaceOnUse">
<stop stop-color="#FF996C"/>
<stop offset="1" stop-color="#FFF6B6"/>
</linearGradient>
</defs>
</svg>
