<svg width="160" height="160" viewBox="0 0 160 160" fill="none" xmlns="http://www.w3.org/2000/svg">
<path d="M76.5 132C104.39 132 127 109.39 127 81.5C127 53.6097 104.39 31 76.5 31C48.6097 31 26 53.6097 26 81.5C26 109.39 48.6097 132 76.5 132Z" stroke="#5C5B5E" stroke-width="1.5" stroke-miterlimit="10" stroke-dasharray="3 3"/>
<path d="M106.521 104.743C103.902 108.249 100.662 111.302 96.9399 113.721L111.782 129.423C114.339 131.995 118.491 132.006 121.063 129.45C123.635 126.893 123.647 122.742 121.091 120.17L106.521 104.743Z" fill="url(#paint0_linear_5_44)"/>
<path d="M99.2425 116.046C99.2425 116.046 103.62 111.642 104.528 107.328C104.528 107.328 101.603 110.992 96.9414 113.721L99.2463 116.046H99.2425Z" fill="#090A0F"/>
<path d="M76.5 117C95.5535 117 111 101.554 111 82.5C111 63.4455 95.5535 48 76.5 48C57.4465 48 42 63.4465 42 82.5C42 101.553 57.4465 117 76.5 117Z" fill="#7FE3D9"/>
<g opacity="0.8">
<path d="M63.5705 47.5514C61.7818 48.2039 60.0572 48.9893 58.4082 49.896L108.057 102.244C109.049 100.642 109.922 98.9589 110.666 97.2075L63.5705 47.5514Z" fill="white"/>
<path d="M106.642 104.364L56.219 51.1994C48.7955 55.9702 43.1733 63.3043 40.5996 71.9527L85.1208 118.894C93.9279 116.766 101.515 111.509 106.642 104.364Z" fill="white"/>
</g>
<path fill-rule="evenodd" clip-rule="evenodd" d="M38.4761 82.3677C38.4761 61.3159 55.542 44.25 76.5938 44.25C97.6455 44.25 114.711 61.3159 114.711 82.3677C114.711 103.419 97.6455 120.485 76.5938 120.485C55.542 120.485 38.4761 103.419 38.4761 82.3677ZM76.5938 45.75C56.3704 45.75 39.9761 62.1443 39.9761 82.3677C39.9761 102.591 56.3704 118.985 76.5938 118.985C96.8171 118.985 113.211 102.591 113.211 82.3677C113.211 62.1443 96.8171 45.75 76.5938 45.75Z" fill="white"/>
<path d="M132.143 50.6414C131.931 50.1838 131.734 49.774 131.611 49.343C131.084 47.4989 131.961 46.2381 133.364 44.4645C134.527 42.8887 135.379 41.3503 134.893 39.6499C134.305 37.5904 132.201 36.8184 130.212 37.3867C128.148 37.9764 126.712 39.915 127.396 42.3099C127.457 42.5254 127.526 42.7649 127.644 42.9902L125.765 43.1903C125.646 42.9651 125.553 42.7327 125.491 42.5172C124.561 39.2602 126.76 36.5078 129.844 35.6269C132.803 34.7815 136.058 35.8201 136.941 38.9095C137.632 41.3283 136.336 43.3822 135.032 45.1275C134.02 46.4788 133.212 47.5125 133.63 48.9733C133.726 49.3086 133.885 49.6776 134.107 50.0802L132.143 50.6414ZM132.782 54.0076C132.556 53.2173 133.025 52.41 133.845 52.1755C134.666 51.9411 135.49 52.379 135.716 53.1693C135.949 53.9836 135.512 54.8078 134.691 55.0422C133.846 55.2838 133.008 54.7979 132.782 54.0076Z" fill="white"/>
<path d="M22.1638 129.068C22.0862 128.57 22.0086 128.122 22.0086 127.674C22.0086 125.756 23.1983 124.785 25.0345 123.465C26.5862 122.269 27.8276 121.024 27.8276 119.255C27.8276 117.113 26.0172 115.793 23.9483 115.793C21.8017 115.793 19.8879 117.263 19.8879 119.753C19.8879 119.978 19.8879 120.227 19.9397 120.476L18.0776 120.152C18.0259 119.903 18 119.654 18 119.43C18 116.042 20.8707 114 24.0776 114C27.1552 114 30 115.893 30 119.106C30 121.621 28.1897 123.24 26.4569 124.56C25.1121 125.582 24.0517 126.354 24.0517 127.873C24.0517 128.222 24.1034 128.62 24.2069 129.068H22.1638ZM21.8534 132.481C21.8534 131.659 22.5259 131.011 23.3793 131.011C24.2328 131.011 24.9052 131.659 24.9052 132.481C24.9052 133.328 24.2586 134 23.4052 134C22.5259 134 21.8534 133.303 21.8534 132.481Z" fill="white"/>
<path d="M23.1528 40.6165C23.1875 40.1136 23.2112 39.6592 23.3105 39.222C23.7353 37.3518 25.1106 36.6682 27.1936 35.7877C28.9716 34.9656 30.458 34.0262 30.8498 32.3018C31.3243 30.213 29.8513 28.5247 27.8338 28.0664C25.7406 27.5909 23.5488 28.5999 22.997 31.0287C22.9474 31.2473 22.8922 31.4902 22.8875 31.7445L21.1434 31.0163C21.1481 30.7619 21.1781 30.5133 21.2277 30.2947C21.9781 26.9916 25.2299 25.6359 28.3571 26.3463C31.3582 27.0281 33.7131 29.5042 33.0013 32.6373C32.4441 35.0904 30.3201 36.268 28.3379 37.1714C26.8003 37.8693 25.5953 38.3874 25.2587 39.8689C25.1814 40.2089 25.1436 40.609 25.1452 41.0691L23.1528 40.6165ZM22.0943 43.8752C22.2764 43.0737 23.0755 42.5912 23.9078 42.7802C24.74 42.9693 25.2523 43.7497 25.0702 44.5512C24.8826 45.377 24.1031 45.8895 23.2709 45.7005C22.4134 45.5057 21.9122 44.6767 22.0943 43.8752Z" fill="white"/>
<defs>
<linearGradient id="paint0_linear_5_44" x1="124.253" y1="132.911" x2="102.949" y2="110.602" gradientUnits="userSpaceOnUse">
<stop stop-color="#397BFF"/>
<stop offset="1" stop-color="#A97DFF"/>
</linearGradient>
</defs>
</svg>
