<svg width="160" height="160" viewBox="0 0 160 160" fill="none" xmlns="http://www.w3.org/2000/svg">
<path d="M138 43L138 118C138 120.209 136.209 122 134 122L16 122C13.7909 122 12 120.209 12 118L12 43L138 43Z" fill="url(#paint0_linear_5_53)"/>
<path d="M129.243 32.2929C129.633 31.9024 130.266 31.9024 130.657 32.2929L131.532 33.1679C131.922 33.5584 131.922 34.1916 131.532 34.5821L130.202 35.9124L131.532 37.2426C131.922 37.6332 131.922 38.2663 131.532 38.6569L130.657 39.5318C130.266 39.9223 129.633 39.9223 129.243 39.5318L127.912 38.2015L126.582 39.5318C126.192 39.9223 125.558 39.9223 125.168 39.5318L124.293 38.6569C123.902 38.2663 123.902 37.6332 124.293 37.2426L125.623 35.9124L124.293 34.5821C123.902 34.1916 123.902 33.5584 124.293 33.1679L125.168 32.2929C125.558 31.9024 126.192 31.9024 126.582 32.2929L127.912 33.6232L129.243 32.2929Z" fill="white"/>
<circle cx="22" cy="36" r="3" fill="white"/>
<circle cx="33" cy="36" r="3" fill="white"/>
<circle cx="44" cy="36" r="3" fill="white"/>
<path fill-rule="evenodd" clip-rule="evenodd" d="M134 29.5H16C14.6193 29.5 13.5 30.6193 13.5 32V41.5H136.5V32C136.5 30.6193 135.381 29.5 134 29.5ZM16 28C13.7909 28 12 29.7909 12 32V43H138V32C138 29.7909 136.209 28 134 28H16Z" fill="white"/>
<rect x="84" y="91" width="40" height="18" fill="#6195FF"/>
<path d="M47.3213 108.701C61.306 108.701 72.6425 97.3517 72.6425 83.3507C72.6425 69.3497 61.306 58 47.3213 58C33.3365 58 22 69.3497 22 83.3507C22 97.3517 33.3365 108.701 47.3213 108.701Z" fill="#BA97FF"/>
<path d="M72.5893 84.3049C72.5893 83.9903 72.6408 83.6774 72.6408 83.3507C72.6408 69.3548 61.2991 58 47.3195 58V84.3049H72.5893Z" fill="url(#paint1_linear_5_53)"/>
<path d="M144.347 116.819C142.776 118.92 140.834 120.751 138.602 122.201L147.501 131.615C149.034 133.157 151.523 133.164 153.065 131.632C154.607 130.099 154.614 127.61 153.081 126.067L144.347 116.819Z" fill="url(#paint2_linear_5_53)"/>
<path d="M139.982 123.595C139.982 123.595 142.607 120.955 143.151 118.368C143.151 118.368 141.398 120.565 138.603 122.201L139.985 123.595H139.982Z" fill="#090A0F"/>
<path d="M126.347 124.167C137.771 124.167 147.032 114.907 147.032 103.483C147.032 92.0589 137.771 82.7986 126.347 82.7986C114.924 82.7986 105.663 92.0594 105.663 103.483C105.663 114.906 114.924 124.167 126.347 124.167Z" fill="#71CAC1"/>
<g opacity="0.8">
<path d="M118.596 82.5297C117.523 82.9209 116.489 83.3918 115.501 83.9354L145.267 115.32C145.862 114.36 146.386 113.351 146.832 112.301L118.596 82.5297Z" fill="white"/>
<path d="M144.419 116.591L114.188 84.7168C109.737 87.5771 106.367 91.9742 104.823 97.1593L131.516 125.303C136.796 124.027 141.345 120.875 144.419 116.591Z" fill="white"/>
</g>
<path fill-rule="evenodd" clip-rule="evenodd" d="M103.25 103.404C103.25 90.6162 113.616 80.25 126.404 80.25C139.191 80.25 149.557 90.6162 149.557 103.404C149.557 116.191 139.191 126.557 126.404 126.557C113.616 126.557 103.25 116.191 103.25 103.404ZM126.404 81.75C114.445 81.75 104.75 91.4447 104.75 103.404C104.75 115.362 114.445 125.057 126.404 125.057C138.362 125.057 148.057 115.362 148.057 103.404C148.057 91.4447 138.362 81.75 126.404 81.75Z" fill="white"/>
<path fill-rule="evenodd" clip-rule="evenodd" d="M87 59.5H123C123.828 59.5 124.5 60.1716 124.5 61C124.5 61.8284 123.828 62.5 123 62.5H87C86.1716 62.5 85.5 61.8284 85.5 61C85.5 60.1716 86.1716 59.5 87 59.5ZM123 58C124.657 58 126 59.3431 126 61C126 62.6569 124.657 64 123 64H87C85.3431 64 84 62.6569 84 61C84 59.3431 85.3431 58 87 58H123Z" fill="white"/>
<path fill-rule="evenodd" clip-rule="evenodd" d="M87 69.5H106C106.828 69.5 107.5 70.1716 107.5 71C107.5 71.8284 106.828 72.5 106 72.5H87C86.1716 72.5 85.5 71.8284 85.5 71C85.5 70.1716 86.1716 69.5 87 69.5ZM106 68C107.657 68 109 69.3431 109 71C109 72.6569 107.657 74 106 74H87C85.3431 74 84 72.6569 84 71C84 69.3431 85.3431 68 87 68H106Z" fill="white"/>
<defs>
<linearGradient id="paint0_linear_5_53" x1="12" y1="43" x2="152.176" y2="122.907" gradientUnits="userSpaceOnUse">
<stop stop-color="#5F91F9"/>
<stop offset="1" stop-color="#111E1D"/>
</linearGradient>
<linearGradient id="paint1_linear_5_53" x1="45.451" y1="87.926" x2="62.0459" y2="68.7773" gradientUnits="userSpaceOnUse">
<stop stop-color="#397BFF"/>
<stop offset="1" stop-color="#BA97FF"/>
</linearGradient>
<linearGradient id="paint2_linear_5_53" x1="154.977" y1="133.706" x2="142.205" y2="120.331" gradientUnits="userSpaceOnUse">
<stop stop-color="#397BFF"/>
<stop offset="1" stop-color="#A97DFF"/>
</linearGradient>
</defs>
</svg>
