<svg width="160" height="160" viewBox="0 0 160 160" fill="none" xmlns="http://www.w3.org/2000/svg">
<path d="M138 43L138 118C138 120.209 136.209 122 134 122L16 122C13.7909 122 12 120.209 12 118L12 43L138 43Z" fill="url(#paint0_linear_5_53)"/>
<path d="M129.243 32.2929C129.633 31.9024 130.266 31.9024 130.657 32.2929L131.532 33.1679C131.922 33.5584 131.922 34.1916 131.532 34.5821L130.202 35.9124L131.532 37.2426C131.922 37.6332 131.922 38.2663 131.532 38.6569L130.657 39.5318C130.266 39.9223 129.633 39.9223 129.243 39.5318L127.912 38.2015L126.582 39.5318C126.192 39.9223 125.558 39.9223 125.168 39.5318L124.293 38.6569C123.902 38.2663 123.902 37.6332 124.293 37.2426L125.623 35.9124L124.293 34.5821C123.902 34.1916 123.902 33.5584 124.293 33.1679L125.168 32.2929C125.558 31.9024 126.192 31.9024 126.582 32.2929L127.912 33.6232L129.243 32.2929Z" fill="white"/>
<circle cx="22" cy="36" r="3" fill="white"/>
<circle cx="33" cy="36" r="3" fill="white"/>
<circle cx="44" cy="36" r="3" fill="white"/>
<path d="M12.75 32C12.75 30.2051 14.2051 28.75 16 28.75H134C135.795 28.75 137.25 30.2051 137.25 32V42.25H12.75V32Z" stroke="white" stroke-width="1.5"/>
<rect x="84" y="91" width="40" height="18" fill="#6195FF"/>
<path d="M47.3213 108.701C61.306 108.701 72.6425 97.3517 72.6425 83.3507C72.6425 69.3497 61.306 58 47.3213 58C33.3365 58 22 69.3497 22 83.3507C22 97.3517 33.3365 108.701 47.3213 108.701Z" fill="#BA97FF"/>
<path d="M72.5893 84.3049C72.5893 83.9903 72.6408 83.6774 72.6408 83.3507C72.6408 69.3548 61.2991 58 47.3195 58V84.3049H72.5893Z" fill="url(#paint1_linear_5_53)"/>
<path d="M144.347 116.819C142.776 118.92 140.834 120.751 138.602 122.201L147.501 131.615C149.034 133.157 151.523 133.164 153.065 131.632C154.607 130.099 154.614 127.61 153.081 126.067L144.347 116.819Z" fill="url(#paint2_linear_5_53)"/>
<path d="M139.982 123.595C139.982 123.595 142.607 120.955 143.151 118.368C143.151 118.368 141.398 120.565 138.603 122.201L139.985 123.595H139.982Z" fill="#090A0F"/>
<path d="M126.347 124.167C137.771 124.167 147.032 114.907 147.032 103.483C147.032 92.0589 137.771 82.7986 126.347 82.7986C114.924 82.7986 105.663 92.0594 105.663 103.483C105.663 114.906 114.924 124.167 126.347 124.167Z" fill="#71CAC1"/>
<g opacity="0.8">
<path d="M118.596 82.5297C117.523 82.9209 116.489 83.3918 115.501 83.9354L145.267 115.32C145.862 114.36 146.386 113.351 146.832 112.301L118.596 82.5297Z" fill="white"/>
<path d="M144.419 116.591L114.188 84.7168C109.737 87.5771 106.367 91.9742 104.823 97.1593L131.516 125.303C136.796 124.027 141.345 120.875 144.419 116.591Z" fill="white"/>
</g>
<path d="M126.404 125.807C138.777 125.807 148.807 115.777 148.807 103.404C148.807 91.0304 138.777 81 126.404 81C114.03 81 104 91.0304 104 103.404C104 115.777 114.03 125.807 126.404 125.807Z" stroke="white" stroke-width="1.5" stroke-miterlimit="10"/>
<rect x="-0.75" y="0.75" width="40.5" height="4.5" rx="2.25" transform="matrix(-1 0 0 1 124.5 58)" stroke="white" stroke-width="1.5"/>
<rect x="-0.75" y="0.75" width="23.5" height="4.5" rx="2.25" transform="matrix(-1 0 0 1 107.5 68)" stroke="white" stroke-width="1.5"/>
<defs>
<linearGradient id="paint0_linear_5_53" x1="12" y1="43" x2="152.176" y2="122.907" gradientUnits="userSpaceOnUse">
<stop stop-color="#5F91F9"/>
<stop offset="1" stop-color="#111E1D"/>
</linearGradient>
<linearGradient id="paint1_linear_5_53" x1="45.451" y1="87.926" x2="62.0459" y2="68.7773" gradientUnits="userSpaceOnUse">
<stop stop-color="#397BFF"/>
<stop offset="1" stop-color="#BA97FF"/>
</linearGradient>
<linearGradient id="paint2_linear_5_53" x1="154.977" y1="133.706" x2="142.205" y2="120.331" gradientUnits="userSpaceOnUse">
<stop stop-color="#397BFF"/>
<stop offset="1" stop-color="#A97DFF"/>
</linearGradient>
</defs>
</svg>
