<svg width="160" height="160" viewBox="0 0 160 160" fill="none" xmlns="http://www.w3.org/2000/svg">
<path d="M143 43L143 118C143 120.209 141.209 122 139 122L21 122C18.7909 122 17 120.209 17 118L17 43L143 43Z" fill="url(#paint0_linear_302_1650)"/>
<path d="M134.243 32.2929C134.633 31.9024 135.266 31.9024 135.657 32.2929L136.532 33.1679C136.922 33.5584 136.922 34.1916 136.532 34.5821L135.202 35.9124L136.532 37.2426C136.922 37.6332 136.922 38.2663 136.532 38.6569L135.657 39.5318C135.266 39.9223 134.633 39.9223 134.243 39.5318L132.912 38.2015L131.582 39.5318C131.192 39.9223 130.558 39.9223 130.168 39.5318L129.293 38.6569C128.902 38.2663 128.902 37.6332 129.293 37.2426L130.623 35.9124L129.293 34.5821C128.902 34.1916 128.902 33.5584 129.293 33.1679L130.168 32.2929C130.558 31.9024 131.192 31.9024 131.582 32.2929L132.912 33.6232L134.243 32.2929Z" fill="white"/>
<circle cx="27" cy="36" r="3" fill="white"/>
<circle cx="38" cy="36" r="3" fill="white"/>
<circle cx="49" cy="36" r="3" fill="white"/>
<path fill-rule="evenodd" clip-rule="evenodd" d="M139 29.5H21C19.6193 29.5 18.5 30.6193 18.5 32V41.5H141.5V32C141.5 30.6193 140.381 29.5 139 29.5ZM21 28C18.7909 28 17 29.7909 17 32V43H143V32C143 29.7909 141.209 28 139 28H21Z" fill="white"/>
<path d="M89 102C89 98.134 92.1707 95 96.082 95H123.918C127.829 95 131 98.134 131 102C131 105.866 127.829 109 123.918 109H96.082C92.1707 109 89 105.866 89 102Z" fill="#6195FF"/>
<rect x="24" y="55" width="54" height="54" fill="#6195FF"/>
<path fill-rule="evenodd" clip-rule="evenodd" d="M92 58.5H128C128.828 58.5 129.5 59.1716 129.5 60C129.5 60.8284 128.828 61.5 128 61.5H92C91.1716 61.5 90.5 60.8284 90.5 60C90.5 59.1716 91.1716 58.5 92 58.5ZM128 57C129.657 57 131 58.3431 131 60C131 61.6569 129.657 63 128 63H92C90.3431 63 89 61.6569 89 60C89 58.3431 90.3431 57 92 57H128Z" fill="white"/>
<path fill-rule="evenodd" clip-rule="evenodd" d="M92 68.5H111C111.828 68.5 112.5 69.1716 112.5 70C112.5 70.8284 111.828 71.5 111 71.5H92C91.1716 71.5 90.5 70.8284 90.5 70C90.5 69.1716 91.1716 68.5 92 68.5ZM111 67C112.657 67 114 68.3431 114 70C114 71.6569 112.657 73 111 73H92C90.3431 73 89 71.6569 89 70C89 68.3431 90.3431 67 92 67H111Z" fill="white"/>
<path fill-rule="evenodd" clip-rule="evenodd" d="M44.2917 81H42C37.5817 81 34 84.5817 34 89V97.3305C38.4608 101.469 44.4349 104 51 104C57.5651 104 63.5392 101.469 68 97.3305V89C68 84.5817 64.4183 81 60 81H57.7083C56.0604 82.8412 53.6655 84 51 84C48.3345 84 45.9396 82.8412 44.2917 81Z" fill="#2256C5"/>
<path d="M58.25 69V72C58.25 76.0041 55.0041 79.25 51 79.25C46.9959 79.25 43.75 76.0041 43.75 72V69C43.75 64.9959 46.9959 61.75 51 61.75C55.0041 61.75 58.25 64.9959 58.25 69Z" stroke="white" stroke-width="1.5"/>
<path d="M115.343 102.343L128.69 134.376L132.582 125.078L139.289 131.785L144.785 126.289L138.078 119.582L147.376 115.69L115.343 102.343Z" fill="white"/>
<defs>
<linearGradient id="paint0_linear_302_1650" x1="17" y1="43" x2="157.176" y2="122.907" gradientUnits="userSpaceOnUse">
<stop stop-color="#6195FF"/>
<stop offset="1" stop-color="#111E1D"/>
</linearGradient>
</defs>
</svg>
