<svg width="160" height="160" viewBox="0 0 160 160" fill="none" xmlns="http://www.w3.org/2000/svg">
<path d="M138 43L138 118C138 120.209 136.209 122 134 122L16 122C13.7909 122 12 120.209 12 118L12 43L138 43Z" fill="url(#paint0_linear_302_1651)"/>
<path d="M129.243 32.2929C129.633 31.9024 130.266 31.9024 130.657 32.2929L131.532 33.1679C131.922 33.5584 131.922 34.1916 131.532 34.5821L130.202 35.9124L131.532 37.2426C131.922 37.6332 131.922 38.2663 131.532 38.6569L130.657 39.5318C130.266 39.9223 129.633 39.9223 129.243 39.5318L127.912 38.2015L126.582 39.5318C126.192 39.9223 125.558 39.9223 125.168 39.5318L124.293 38.6569C123.902 38.2663 123.902 37.6332 124.293 37.2426L125.623 35.9124L124.293 34.5821C123.902 34.1916 123.902 33.5584 124.293 33.1679L125.168 32.2929C125.558 31.9024 126.192 31.9024 126.582 32.2929L127.912 33.6232L129.243 32.2929Z" fill="#090A0F"/>
<circle cx="22" cy="36" r="3" fill="#090A0F"/>
<circle cx="33" cy="36" r="3" fill="#090A0F"/>
<circle cx="44" cy="36" r="3" fill="#090A0F"/>
<path fill-rule="evenodd" clip-rule="evenodd" d="M134 29.5H16C14.6193 29.5 13.5 30.6193 13.5 32V41.5H136.5V32C136.5 30.6193 135.381 29.5 134 29.5ZM16 28C13.7909 28 12 29.7909 12 32V43H138V32C138 29.7909 136.209 28 134 28H16Z" fill="#090A0F"/>
<path d="M84 102C84 98.134 87.1707 95 91.082 95H118.918C122.829 95 126 98.134 126 102C126 105.866 122.829 109 118.918 109H91.082C87.1707 109 84 105.866 84 102Z" fill="#6195FF"/>
<rect x="19" y="55" width="54" height="54" fill="#B0CAFF"/>
<path fill-rule="evenodd" clip-rule="evenodd" d="M87 58.5H123C123.828 58.5 124.5 59.1716 124.5 60C124.5 60.8284 123.828 61.5 123 61.5H87C86.1716 61.5 85.5 60.8284 85.5 60C85.5 59.1716 86.1716 58.5 87 58.5ZM123 57C124.657 57 126 58.3431 126 60C126 61.6569 124.657 63 123 63H87C85.3431 63 84 61.6569 84 60C84 58.3431 85.3431 57 87 57H123Z" fill="#090A0F"/>
<path fill-rule="evenodd" clip-rule="evenodd" d="M87 68.5H106C106.828 68.5 107.5 69.1716 107.5 70C107.5 70.8284 106.828 71.5 106 71.5H87C86.1716 71.5 85.5 70.8284 85.5 70C85.5 69.1716 86.1716 68.5 87 68.5ZM106 67C107.657 67 109 68.3431 109 70C109 71.6569 107.657 73 106 73H87C85.3431 73 84 71.6569 84 70C84 68.3431 85.3431 67 87 67H106Z" fill="#090A0F"/>
<path fill-rule="evenodd" clip-rule="evenodd" d="M39.2917 81H37C32.5817 81 29 84.5817 29 89V97.3305C33.4608 101.469 39.4349 104 46 104C52.5651 104 58.5392 101.469 63 97.3305V89C63 84.5817 59.4183 81 55 81H52.7083C51.0604 82.8412 48.6655 84 46 84C43.3345 84 40.9396 82.8412 39.2917 81Z" fill="#6195FF"/>
<path d="M53.25 69V72C53.25 76.0041 50.0041 79.25 46 79.25C41.9959 79.25 38.75 76.0041 38.75 72V69C38.75 64.9959 41.9959 61.75 46 61.75C50.0041 61.75 53.25 64.9959 53.25 69Z" stroke="#090A0F" stroke-width="1.5"/>
<path d="M110.343 102.343L123.69 134.376L127.582 125.078L134.289 131.785L139.785 126.289L133.078 119.582L142.376 115.69L110.343 102.343Z" fill="#090A0F"/>
<defs>
<linearGradient id="paint0_linear_302_1651" x1="12" y1="43" x2="152.176" y2="122.907" gradientUnits="userSpaceOnUse">
<stop stop-color="#B0CAFF"/>
<stop offset="1" stop-color="#D1FEF9"/>
</linearGradient>
</defs>
</svg>
