<svg width="160" height="160" viewBox="0 0 160 160" fill="none" xmlns="http://www.w3.org/2000/svg">
<path d="M81 131C108.614 131 131 108.614 131 81C131 53.3858 108.614 31 81 31C53.3858 31 31 53.3858 31 81C31 108.614 53.3858 131 81 131Z" stroke="#090A0F" stroke-width="1.5" stroke-miterlimit="10"/>
<path d="M81 123C104.196 123 123 104.196 123 81C123 57.8041 104.196 39 81 39C57.8041 39 39 57.8041 39 81C39 104.196 57.8041 123 81 123Z" fill="url(#paint0_linear_4_976)"/>
<path d="M59 83.5L73.5 97.5L103.5 64" stroke="#090A0F" stroke-width="1.5"/>
<path d="M128.654 39C131.558 37.8692 133.869 35.5582 135 32.654C136.131 35.5582 138.442 37.8692 141.346 39C138.442 40.1308 136.131 42.4418 135 45.3461C133.869 42.4418 131.558 40.1308 128.654 39Z" stroke="#090A0F" stroke-width="1.5"/>
<path d="M19.2243 46.5C21.1188 45.6441 22.6441 44.1188 23.5 42.2243C24.3559 44.1188 25.8812 45.6441 27.7757 46.5C25.8812 47.3559 24.3559 48.8812 23.5 50.7757C22.6441 48.8812 21.1188 47.3559 19.2243 46.5Z" stroke="#090A0F" stroke-width="1.5"/>
<path d="M21.9264 123C23.249 122.328 24.3285 121.249 25 119.926C25.6715 121.249 26.751 122.328 28.0736 123C26.751 123.672 25.6715 124.751 25 126.074C24.3285 124.751 23.249 123.672 21.9264 123Z" stroke="#090A0F" stroke-width="1.5"/>
<path d="M135.704 117C136.666 116.462 137.462 115.666 138 114.704C138.538 115.666 139.334 116.462 140.296 117C139.334 117.538 138.538 118.334 138 119.296C137.462 118.334 136.666 117.538 135.704 117Z" stroke="#090A0F" stroke-width="1.5"/>
<defs>
<linearGradient id="paint0_linear_4_976" x1="70.5" y1="65" x2="111" y2="131" gradientUnits="userSpaceOnUse">
<stop stop-color="#7FE3D9"/>
<stop offset="1" stop-color="#A97DFF"/>
</linearGradient>
</defs>
</svg>
