<svg width="160" height="160" viewBox="0 0 160 160" fill="none" xmlns="http://www.w3.org/2000/svg">
<path d="M81 131C108.614 131 131 108.614 131 81C131 53.3858 108.614 31 81 31C53.3858 31 31 53.3858 31 81C31 108.614 53.3858 131 81 131Z" stroke="#090A0F" stroke-width="1.5" stroke-miterlimit="10"/>
<path d="M81 123C104.196 123 123 104.196 123 81C123 57.8041 104.196 39 81 39C57.8041 39 39 57.8041 39 81C39 104.196 57.8041 123 81 123Z" fill="url(#paint0_linear_4_976)"/>
<path fill-rule="evenodd" clip-rule="evenodd" d="M104.059 64.5003L73.5392 98.5804L58.4791 84.0395L59.521 82.9604L73.4608 96.4196L102.941 63.4996L104.059 64.5003Z" fill="#090A0F"/>
<path fill-rule="evenodd" clip-rule="evenodd" d="M135 29C134.951 30.2886 134.669 31.5167 134.195 32.6433C133.142 35.1426 131.143 37.1424 128.643 38.195C127.517 38.6695 126.289 38.9515 125 39C126.289 39.0485 127.517 39.3305 128.643 39.805C131.143 40.8576 133.142 42.8574 134.195 45.3567C134.669 46.4833 134.951 47.7114 135 49C135.049 47.7114 135.331 46.4833 135.805 45.3567C136.858 42.8574 138.857 40.8576 141.357 39.805C142.483 39.3305 143.711 39.0485 145 39C143.711 38.9515 142.483 38.6695 141.357 38.195C138.857 37.1424 136.858 35.1426 135.805 32.6433C135.331 31.5167 135.049 30.2886 135 29ZM135 34.4087C133.925 36.3318 132.332 37.9249 130.409 39C132.332 40.0751 133.925 41.6682 135 43.5913C136.075 41.6682 137.668 40.0751 139.591 39C137.668 37.9249 136.075 36.3318 135 34.4087Z" fill="#090A0F"/>
<path fill-rule="evenodd" clip-rule="evenodd" d="M23.5 39C23.4566 40.151 23.1649 41.2376 22.6768 42.2079C21.9241 43.7043 20.7043 44.9241 19.2079 45.6768C18.2376 46.1649 17.151 46.4566 16 46.5C17.151 46.5433 18.2376 46.835 19.2079 47.3231C20.7043 48.0759 21.9241 49.2957 22.6768 50.7921C23.1649 51.7624 23.4566 52.849 23.5 54C23.5434 52.849 23.8351 51.7624 24.3232 50.7921C25.0759 49.2957 26.2957 48.0759 27.7921 47.3231C28.7624 46.835 29.849 46.5433 31 46.5C29.849 46.4566 28.7624 46.1649 27.7921 45.6768C26.2957 44.9241 25.0759 43.7043 24.3232 42.2079C23.8351 41.2376 23.5434 40.151 23.5 39ZM23.5 43.7809C22.7928 44.8654 21.8654 45.7928 20.7809 46.5C21.8654 47.2072 22.7928 48.1346 23.5 49.2191C24.2072 48.1346 25.1346 47.2072 26.2191 46.5C25.1346 45.7928 24.2072 44.8654 23.5 43.7809Z" fill="#090A0F"/>
<path fill-rule="evenodd" clip-rule="evenodd" d="M25 117C24.9602 118.056 24.6589 119.045 24.1587 119.903C23.615 120.836 22.8363 121.615 21.9034 122.159C21.0452 122.659 20.0565 122.96 19 123C20.0565 123.04 21.0452 123.341 21.9034 123.841C22.8363 124.385 23.615 125.164 24.1587 126.097C24.6589 126.955 24.9602 127.944 25 129C25.0398 127.944 25.3411 126.955 25.8413 126.097C26.385 125.164 27.1637 124.385 28.0966 123.841C28.9548 123.341 29.9435 123.04 31 123C29.9435 122.96 28.9548 122.659 28.0966 122.159C27.1637 121.615 26.385 120.836 25.8413 119.903C25.3411 119.045 25.0398 118.056 25 117ZM25 121.351C24.5366 121.98 23.9802 122.537 23.351 123C23.9802 123.463 24.5366 124.02 25 124.649C25.4634 124.02 26.0198 123.463 26.649 123C26.0198 122.537 25.4634 121.98 25 121.351Z" fill="#090A0F"/>
<path fill-rule="evenodd" clip-rule="evenodd" d="M138 112C137.963 112.987 137.652 113.903 137.141 114.674C136.755 115.256 136.256 115.755 135.674 116.141C134.903 116.652 133.987 116.963 133 117C133.987 117.037 134.903 117.348 135.674 117.859C136.256 118.245 136.755 118.744 137.141 119.326C137.652 120.097 137.963 121.013 138 122C138.037 121.013 138.348 120.097 138.859 119.326C139.245 118.744 139.744 118.245 140.326 117.859C141.097 117.348 142.013 117.037 143 117C142.013 116.963 141.097 116.652 140.326 116.141C139.744 115.755 139.245 115.256 138.859 114.674C138.348 113.903 138.037 112.987 138 112ZM138 116.034C137.712 116.388 137.388 116.712 137.034 117C137.388 117.288 137.712 117.612 138 117.966C138.288 117.612 138.612 117.288 138.966 117C138.612 116.712 138.288 116.388 138 116.034Z" fill="#090A0F"/>
<defs>
<linearGradient id="paint0_linear_4_976" x1="70.5" y1="65" x2="111" y2="131" gradientUnits="userSpaceOnUse">
<stop stop-color="#7FE3D9"/>
<stop offset="1" stop-color="#A97DFF"/>
</linearGradient>
</defs>
</svg>
