<svg width="160" height="160" viewBox="0 0 160 160" fill="none" xmlns="http://www.w3.org/2000/svg">
<path d="M137 42L137 117C137 119.209 135.209 121 133 121L15 121C12.7909 121 11 119.209 11 117L11 42L137 42Z" fill="url(#paint0_linear_5_47)"/>
<path d="M128.243 31.2929C128.633 30.9024 129.266 30.9024 129.657 31.2929L130.532 32.1679C130.922 32.5584 130.922 33.1916 130.532 33.5821L129.202 34.9124L130.532 36.2426C130.922 36.6332 130.922 37.2663 130.532 37.6569L129.657 38.5318C129.266 38.9223 128.633 38.9223 128.243 38.5318L126.912 37.2015L125.582 38.5318C125.192 38.9223 124.558 38.9223 124.168 38.5318L123.293 37.6569C122.902 37.2663 122.902 36.6332 123.293 36.2426L124.623 34.9124L123.293 33.5821C122.902 33.1916 122.902 32.5584 123.293 32.1679L124.168 31.2929C124.558 30.9024 125.192 30.9024 125.582 31.2929L126.912 32.6232L128.243 31.2929Z" fill="white"/>
<circle cx="21" cy="35" r="3" fill="white"/>
<circle cx="32" cy="35" r="3" fill="white"/>
<circle cx="43" cy="35" r="3" fill="white"/>
<path d="M11.75 31C11.75 29.2051 13.2051 27.75 15 27.75H133C134.795 27.75 136.25 29.2051 136.25 31V41.25H11.75V31Z" stroke="white" stroke-width="1.5"/>
<rect x="23" y="57" width="24" height="24" rx="1" fill="#6195FF"/>
<path d="M143.172 58L157 63.0876L153.516 72.7653L139.688 67.6777L143.172 58Z" fill="#8DFCF1"/>
<path d="M153.516 72.7655L139.688 67.6776L121.065 119.399L134.894 124.487L153.516 72.7655Z" fill="url(#paint1_linear_5_47)"/>
<rect x="-0.75" y="0.75" width="70.5" height="4.5" rx="2.25" transform="matrix(-1 0 0 1 124.5 57)" stroke="white" stroke-width="1.5"/>
<path d="M109.25 72C109.25 70.7574 108.243 69.75 107 69.75H57C55.7574 69.75 54.75 70.7574 54.75 72C54.75 73.2426 55.7574 74.25 57 74.25H107C108.243 74.25 109.25 73.2426 109.25 72Z" stroke="white" stroke-width="1.5"/>
<path d="M133.372 124.666L124.026 130.762L121.994 120.196L133.372 124.666Z" stroke="white" stroke-width="1.5"/>
<rect x="23" y="87" width="94" height="19" rx="1" fill="#6195FF"/>
<defs>
<linearGradient id="paint0_linear_5_47" x1="11" y1="42" x2="151.176" y2="121.907" gradientUnits="userSpaceOnUse">
<stop stop-color="#5F91F9"/>
<stop offset="1" stop-color="#111E1D"/>
</linearGradient>
<linearGradient id="paint1_linear_5_47" x1="146.602" y1="70.2216" x2="127.621" y2="121.811" gradientUnits="userSpaceOnUse">
<stop stop-color="#397BFF"/>
<stop offset="1" stop-color="#A97DFF"/>
</linearGradient>
</defs>
</svg>
